<?xml version="1.0" encoding="utf-8"?>
<!-- Generator: Adobe Illustrator 17.0.0, SVG Export Plug-In . SVG Version: 6.00 Build 0)  -->
<!DOCTYPE svg PUBLIC "-//W3C//DTD SVG 1.1//EN" "http://www.w3.org/Graphics/SVG/1.1/DTD/svg11.dtd">
<svg version="1.1" id="_x31_" xmlns="http://www.w3.org/2000/svg" xmlns:xlink="http://www.w3.org/1999/xlink" x="0px" y="0px"
	 width="104.761px" height="69.75px" viewBox="0 0 104.761 69.75" enable-background="new 0 0 104.761 69.75" xml:space="preserve">
<g>
	<g>
		<path fill-rule="evenodd" clip-rule="evenodd" d="M21.616,85.84c0.038-0.064,0.057-0.147,0.057-0.25v-2.546
			c0-0.589-0.017-0.92-0.101-1.111c-0.071-0.163-0.215-0.231-0.471-0.302v0c-0.047-0.012-0.119-0.021-0.195-0.028v0.001
			c-0.103-0.009-0.211-0.013-0.282-0.013c-0.059,0-0.121-0.018-0.168-0.053c-0.052-0.039-0.086-0.096-0.086-0.172
			c0-0.103,0.044-0.172,0.135-0.215c0.059-0.028,0.138-0.039,0.24-0.039c0.501,0,1.164,0.025,1.495,0.038l0.197,0.007l0.246-0.009
			c0.333-0.013,0.906-0.036,1.222-0.036c0.102,0,0.181,0.011,0.24,0.039c0.091,0.043,0.135,0.113,0.135,0.215
			c0,0.075-0.034,0.132-0.086,0.171c-0.047,0.036-0.11,0.054-0.168,0.054c-0.047,0-0.091,0.003-0.141,0.01h-0.001
			c-0.054,0.007-0.121,0.018-0.21,0.033c-0.16,0.029-0.263,0.093-0.325,0.196l0-0.001c-0.07,0.117-0.103,0.292-0.117,0.533v0.001
			c-0.03,0.474-0.03,0.922-0.03,1.549v1.677c0,0.347-0.004,0.531-0.034,0.65c-0.039,0.156-0.105,0.203-0.227,0.274l-0.005,0.003
			c-0.434,0.23-0.946,0.392-1.455,0.501c-0.644,0.137-1.29,0.189-1.783,0.189c-0.576,0-1.403-0.038-2.299-0.261
			c-0.9-0.224-1.867-0.633-2.716-1.375c-0.504-0.437-0.994-1.114-1.34-1.94c-0.298-0.714-0.489-1.543-0.489-2.43
			c0-1.134,0.257-2.116,0.67-2.927c0.476-0.939,1.162-1.653,1.895-2.114l0-0.001c0.689-0.43,1.414-0.671,2.111-0.804
			c0.694-0.133,1.361-0.16,1.944-0.16c0.363,0,0.745,0.029,1.095,0.068c0.564,0.062,1.046,0.152,1.224,0.19l0.004,0.001
			c0.147,0.035,0.344,0.067,0.547,0.092c0.221,0.027,0.452,0.047,0.64,0.055l0.008,0.001c0.107,0.01,0.178,0.043,0.224,0.085
			l0.001,0.001c0.059,0.055,0.077,0.12,0.077,0.183c0,0.061-0.008,0.138-0.02,0.25c-0.029,0.279-0.084,0.792-0.084,1.877
			c0,0.137-0.01,0.233-0.039,0.3c-0.046,0.107-0.118,0.149-0.23,0.149c-0.105,0-0.166-0.055-0.201-0.149
			c-0.02-0.052-0.029-0.119-0.038-0.195l-0.001-0.006c-0.008-0.115-0.036-0.297-0.099-0.495c-0.045-0.141-0.108-0.291-0.196-0.431
			l0-0.001c-0.191-0.289-0.626-0.602-1.287-0.83c-0.554-0.191-1.264-0.319-2.118-0.319c-0.463,0-0.971,0.022-1.497,0.153H17.48
			c-0.524,0.131-1.072,0.37-1.624,0.806l0,0c-0.43,0.341-0.797,0.857-1.05,1.509c-0.24,0.618-0.381,1.358-0.381,2.189
			c0,0.839,0.172,1.585,0.41,2.206c0.348,0.909,0.836,1.554,1.137,1.846c0.552,0.538,1.145,0.92,1.76,1.171
			c0.67,0.273,1.368,0.393,2.07,0.393c0.291,0,0.653-0.026,0.981-0.087c0.261-0.048,0.5-0.117,0.66-0.209l0.003-0.002
			C21.52,85.955,21.579,85.903,21.616,85.84L21.616,85.84z M28.607,78.185c-0.014,0.393-0.015,0.758-0.015,2.732v2.277
			c0,0.932,0.007,1.588,0.045,2.037c0.034,0.417,0.09,0.639,0.183,0.726l0.003,0.003c0.084,0.084,0.242,0.147,0.495,0.19
			c0.274,0.047,0.653,0.069,1.162,0.069c0.339,0,0.652-0.004,0.91-0.052c0.242-0.045,0.441-0.13,0.575-0.289v-0.001
			c0.07-0.083,0.128-0.182,0.174-0.287c0.051-0.117,0.089-0.244,0.11-0.367h0.001c0.011-0.065,0.034-0.127,0.07-0.174
			c0.047-0.063,0.113-0.103,0.197-0.103c0.085,0,0.149,0.039,0.189,0.124h0c0.024,0.051,0.036,0.119,0.036,0.205
			c0,0.085-0.032,0.392-0.08,0.705c-0.033,0.217-0.075,0.443-0.12,0.604l0,0.002c-0.056,0.187-0.101,0.297-0.264,0.369h0
			c-0.132,0.058-0.333,0.071-0.703,0.071c-0.461,0-0.883-0.004-1.272-0.012c-0.382-0.007-0.721-0.019-1.026-0.033l-0.364-0.01
			c-0.415-0.011-0.752-0.02-1.067-0.02v0l-0.194,0.002h-0.001c-0.09,0.001-0.208,0.006-0.337,0.013
			c-0.131,0.007-0.266,0.015-0.406,0.021h0c-0.135,0.005-0.263,0.01-0.365,0.01c-0.086,0-0.158-0.012-0.213-0.038v0
			c-0.086-0.041-0.132-0.107-0.132-0.202c0-0.056,0.022-0.123,0.07-0.172c0.04-0.04,0.097-0.068,0.17-0.068
			c0.047,0,0.105-0.006,0.163-0.015H26.6c0.073-0.01,0.148-0.026,0.208-0.041l0.002-0.001c0.158-0.037,0.189-0.228,0.236-0.526
			l0.006-0.036h0c0.073-0.514,0.073-1.514,0.073-2.737v-2.247c0-1.009,0-1.607-0.003-1.959c-0.003-0.38-0.011-0.57-0.026-0.772
			v-0.001C27.082,77.99,27.06,77.848,27,77.759c-0.054-0.08-0.153-0.129-0.327-0.153h0c-0.049-0.007-0.129-0.015-0.211-0.02
			c-0.08-0.005-0.163-0.009-0.22-0.009c-0.06,0-0.121-0.032-0.164-0.075l-0.001-0.001c-0.043-0.044-0.074-0.105-0.074-0.163
			c0-0.093,0.038-0.158,0.123-0.201l0.001-0.001c0.054-0.026,0.126-0.038,0.22-0.038c0.433,0,1.007,0.017,1.306,0.025l0.191,0.005
			l0.229-0.006c0.336-0.008,0.942-0.024,1.223-0.024c0.086,0,0.158,0.012,0.212,0.037h0c0.086,0.041,0.132,0.107,0.132,0.202
			c0,0.063-0.034,0.122-0.081,0.162c-0.044,0.038-0.105,0.063-0.159,0.063c-0.039,0-0.101,0.003-0.171,0.008H29.23
			c-0.083,0.005-0.171,0.013-0.241,0.02c-0.152,0.029-0.241,0.078-0.29,0.157C28.642,77.839,28.62,77.982,28.607,78.185
			L28.607,78.185z M34.842,85.766c-1.051-1.021-1.532-2.447-1.532-3.741c0-1.182,0.514-2.646,1.623-3.702
			c0.869-0.827,2.102-1.405,3.738-1.405c1.548,0,2.907,0.486,3.868,1.367h0c0.923,0.847,1.478,2.055,1.478,3.545
			c0,1.492-0.568,2.853-1.558,3.826c-0.945,0.929-2.276,1.506-3.864,1.506C36.936,87.162,35.7,86.599,34.842,85.766L34.842,85.766z
			 M35.906,78.731L35.906,78.731c-0.607,0.666-0.964,1.649-0.964,2.95c0,1.422,0.417,2.581,1.116,3.389
			c0.719,0.834,1.741,1.298,2.913,1.298c0.68,0,1.772-0.216,2.537-1.143c0.52-0.629,0.893-1.589,0.893-3.036
			c0-1.412-0.404-2.504-1.043-3.26c-0.706-0.835-1.704-1.264-2.761-1.264C37.495,77.667,36.554,78.022,35.906,78.731L35.906,78.731z
			 M46.351,77.532l0.287,3.834v-0.449c0-1.977,0-2.336-0.03-2.741C46.587,77.86,46.542,77.647,46.351,77.532L46.351,77.532z
			 M46.431,85.9L46.431,85.9c0.073-0.514,0.073-1.514,0.073-2.737v-2.247c0-1.009,0-1.607-0.004-1.959
			c-0.003-0.38-0.011-0.57-0.026-0.772v-0.001c-0.013-0.197-0.036-0.348-0.097-0.445c-0.054-0.086-0.153-0.141-0.326-0.165
			c-0.048-0.007-0.128-0.014-0.21-0.02c-0.081-0.005-0.164-0.009-0.221-0.009c-0.05,0-0.108-0.019-0.151-0.049l-0.001,0.001
			c-0.051-0.036-0.088-0.092-0.088-0.161c0-0.093,0.038-0.158,0.123-0.201l0.001-0.001c0.053-0.026,0.126-0.038,0.22-0.038
			c0.433,0,1.024,0.017,1.332,0.025l0.196,0.005v0c0.14,0,0.318-0.005,0.524-0.011h0.001c0.304-0.008,0.67-0.019,1.018-0.019
			c0.936,0,1.591,0.226,2.039,0.54c0.655,0.46,0.867,1.113,0.867,1.542c0,0.533-0.175,0.966-0.438,1.344
			c-0.214,0.307-0.485,0.576-0.768,0.833c0.529,0.196,1.11,0.546,1.538,1.036c0.389,0.444,0.656,1.003,0.656,1.669
			c0,0.8-0.322,1.598-0.985,2.165c-0.568,0.486-1.385,0.801-2.46,0.801c-0.126,0-0.328-0.005-0.556-0.014h-0.001
			c-0.194-0.007-0.403-0.018-0.592-0.032v0l-0.348-0.013c-0.254-0.009-0.448-0.017-0.496-0.017l-0.054,0.002
			c-0.094,0.004-0.286,0.013-0.484,0.013c-0.13,0.007-0.272,0.015-0.415,0.02h-0.001c-0.143,0.005-0.278,0.01-0.379,0.01
			c-0.086,0-0.158-0.012-0.213-0.038v0c-0.086-0.041-0.132-0.107-0.132-0.202c0-0.067,0.026-0.125,0.084-0.166l0,0
			c0.04-0.028,0.092-0.045,0.156-0.045c0.063,0,0.15-0.017,0.231-0.032h0.001c0.05-0.01,0.101-0.019,0.149-0.025
			c0.145-0.025,0.179-0.24,0.225-0.527v-0.001L46.431,85.9L46.431,85.9z M47.97,77.829c-0.026,0.006-0.045,0.013-0.058,0.017v3.341
			l0,0.006c0.041,0.008,0.113,0.021,0.216,0.031c0.125,0.012,0.303,0.023,0.549,0.023c0.357,0,0.605-0.007,0.788-0.049
			c0.167-0.038,0.285-0.109,0.4-0.236h0.001c0.132-0.147,0.251-0.321,0.336-0.53l0-0.001c0.085-0.209,0.138-0.455,0.138-0.743
			c0-0.504-0.151-1.037-0.49-1.411c-0.275-0.304-0.679-0.506-1.232-0.506c-0.083,0-0.219,0.005-0.36,0.017v0
			C48.157,77.797,48.054,77.81,47.97,77.829L47.97,77.829z M47.909,81.203l-0.001-0.001l-0.001-0.001L47.909,81.203L47.909,81.203z
			 M48.861,81.962c-0.14-0.025-0.698-0.027-0.949-0.027v0.659l0.001,1.653c0.002,0.523,0.006,0.95,0.013,1.048v0l0.003,0.049
			c0.037,0.511,0.047,0.642,0.368,0.797c0.164,0.075,0.379,0.117,0.581,0.14c0.205,0.023,0.399,0.027,0.516,0.027
			c0.41,0,0.864-0.077,1.21-0.341c0.343-0.263,0.587-0.72,0.587-1.487c0-0.317-0.073-0.805-0.331-1.281h0
			c-0.182-0.336-0.458-0.668-0.864-0.927v0c-0.32-0.203-0.632-0.242-0.894-0.275l-0.001,0
			C49.015,81.987,48.934,81.977,48.861,81.962L48.861,81.962L48.861,81.962z M55.734,85.766c-1.051-1.021-1.532-2.447-1.532-3.741
			c0-1.182,0.514-2.646,1.623-3.702c0.869-0.827,2.102-1.405,3.738-1.405c1.548,0,2.908,0.486,3.868,1.367h0
			c0.923,0.847,1.478,2.055,1.478,3.545c0,1.492-0.568,2.853-1.558,3.826c-0.945,0.929-2.276,1.506-3.864,1.506
			C57.828,87.162,56.592,86.599,55.734,85.766L55.734,85.766z M56.799,78.731L56.799,78.731c-0.607,0.666-0.964,1.649-0.964,2.95
			c0,1.422,0.417,2.581,1.116,3.389c0.719,0.834,1.741,1.298,2.913,1.298c0.68,0,1.772-0.216,2.537-1.143
			c0.52-0.629,0.893-1.589,0.893-3.036c0-1.412-0.404-2.504-1.043-3.26c-0.706-0.835-1.704-1.264-2.761-1.264
			C58.387,77.667,57.447,78.022,56.799,78.731L56.799,78.731z M78.481,75.373c0.033,0.078,0.055,0.192,0.072,0.348l1.004,9.21
			c0.029,0.262,0.069,0.597,0.177,0.885c0.101,0.268,0.264,0.5,0.54,0.59v0c0.412,0.127,0.788,0.128,0.932,0.128
			c0.032,0,0.06,0.002,0.088,0.008c0.034-0.015,0.071-0.023,0.107-0.023c0.041,0,0.109-0.004,0.179-0.009
			c0.072-0.005,0.144-0.012,0.192-0.019l0.002,0c0.262-0.033,0.449-0.148,0.597-0.323c0.157-0.187,0.28-0.45,0.402-0.761h0
			l3.1-7.966v-0.001c0.086-0.219,0.146-0.351,0.198-0.43l0,0c0.078-0.119,0.15-0.151,0.241-0.151c0.194,0,0.259,0.145,0.365,0.384
			c0.021,0.047,0.044,0.1,0.072,0.158l0.001,0.003c0.122,0.276,0.665,1.611,1.286,3.142c0.683,1.683,1.464,3.605,1.875,4.588
			c0.232,0.551,0.433,0.865,0.608,1.049c0.163,0.171,0.306,0.228,0.431,0.268v0c0.076,0.023,0.155,0.039,0.231,0.05
			c0.094,0.013,0.183,0.018,0.253,0.018c0.063,0,0.137,0.016,0.193,0.052c0.063,0.04,0.107,0.102,0.107,0.188
			c0,0.101-0.067,0.167-0.17,0.203v0c-0.072,0.025-0.17,0.037-0.264,0.037c-0.089,0-0.356,0-0.772-0.004
			c-0.384-0.004-0.859-0.012-1.314-0.026H89.21l-0.094-0.005c-0.282-0.014-0.497-0.028-0.497-0.219c0-0.136,0.047-0.157,0.14-0.198
			l0.028-0.013l0.01-0.004c0.016-0.007,0.039-0.022,0.052-0.045c0.013-0.022,0.016-0.059-0.005-0.112h0l-0.004-0.009l-0.001-0.001
			l-1.179-2.911h-3.039l0.001-0.002l-0.001,0.001v0v0l-0.008,0.016l-0.749,2.037l0,0.001c-0.059,0.155-0.107,0.309-0.139,0.449v0
			c-0.03,0.133-0.047,0.255-0.047,0.356c0,0.068,0.025,0.115,0.064,0.145c0.06,0.046,0.154,0.065,0.25,0.065h0.12
			c0.088,0,0.151,0.025,0.196,0.065l0.001,0c0.054,0.048,0.073,0.109,0.073,0.175c0,0.091-0.043,0.156-0.12,0.197
			c-0.054,0.029-0.127,0.042-0.209,0.042c-0.185,0-0.517-0.016-0.788-0.029c-0.18-0.008-0.334-0.016-0.395-0.016
			c-0.045,0-0.147,0.005-0.279,0.011c-0.278,0.013-0.695,0.034-1.053,0.034c-0.098,0-0.179-0.011-0.238-0.034l-0.002-0.001
			c-0.076,0.033-0.175,0.05-0.285,0.05c-0.201,0-0.903-0.006-1.55-0.021c-0.391-0.009-0.755-0.022-0.962-0.039h-0.001
			c-0.184-0.016-0.301-0.038-0.376-0.067l-0.001-0.001c-0.126-0.05-0.165-0.123-0.165-0.216c0-0.067,0.02-0.121,0.064-0.165
			c0.037-0.037,0.086-0.06,0.15-0.073c0.031-0.006-0.042-0.011-0.04-0.041v0v0c0.01-0.091,0.007-0.218-0.008-0.35v-0.003
			l-0.68-7.361l-3.497,7.421l-0.104,0.22c-0.252,0.534-0.309,0.652-0.512,0.652c-0.182,0-0.264-0.155-0.553-0.704v0l-0.029-0.056
			c-0.36-0.678-1.438-2.841-1.699-3.367l-0.055-0.11l0.001,0c-0.081-0.163-0.696-1.472-1.218-2.602
			c-0.236-0.51-0.455-0.985-0.6-1.305l-0.563,6.539c-0.015,0.233-0.015,0.501-0.015,0.753c0,0.079,0.03,0.155,0.079,0.213l0,0
			c0.05,0.059,0.121,0.103,0.203,0.12l0.004,0c0.102,0.024,0.198,0.041,0.279,0.051h0c0.116,0.015,0.209,0.02,0.259,0.02
			c0.055,0,0.113,0.016,0.158,0.044c0.058,0.036,0.097,0.093,0.097,0.165c0,0.112-0.049,0.184-0.146,0.229
			c-0.065,0.03-0.151,0.041-0.258,0.041c-0.376,0-0.836-0.021-1.127-0.035c-0.13-0.006-0.225-0.01-0.265-0.01
			c-0.05,0-0.175,0.006-0.332,0.014h-0.001c-0.283,0.013-0.671,0.031-0.925,0.031c-0.093,0-0.175-0.011-0.24-0.041
			c-0.094-0.043-0.15-0.116-0.15-0.229c0-0.08,0.047-0.138,0.12-0.174c0.047-0.023,0.107-0.036,0.165-0.036
			c0.057,0,0.111-0.001,0.175-0.005c0.064-0.005,0.142-0.016,0.249-0.037h0.002c0.379-0.069,0.431-0.569,0.484-1.07l0.006-0.054
			V85.35l1.078-9.764h0c0.01-0.102,0.035-0.19,0.074-0.254c0.053-0.087,0.129-0.136,0.224-0.136c0.081,0,0.15,0.027,0.213,0.09
			l0.001,0c0.048,0.048,0.091,0.117,0.134,0.213l0,0l4.458,9.163l4.283-9.147l0.001-0.003c0.034-0.076,0.07-0.146,0.114-0.2l0,0.001
			c0.061-0.073,0.134-0.118,0.232-0.118C78.352,75.196,78.429,75.251,78.481,75.373L78.481,75.373z M86.095,79.294l-1.182,3.36
			h2.437L86.095,79.294L86.095,79.294z M93.128,85.9L93.128,85.9c0.073-0.514,0.073-1.514,0.073-2.737v-2.247
			c0-1.009,0-1.607-0.003-1.959c-0.003-0.38-0.011-0.57-0.026-0.772v-0.001c-0.013-0.195-0.035-0.337-0.095-0.427
			c-0.053-0.08-0.153-0.129-0.327-0.153h0c-0.049-0.007-0.129-0.015-0.211-0.02c-0.08-0.005-0.163-0.009-0.22-0.009
			c-0.06,0-0.121-0.032-0.165-0.075l-0.001-0.001c-0.043-0.044-0.074-0.105-0.074-0.163c0-0.093,0.038-0.158,0.123-0.201
			l0.001-0.001c0.053-0.026,0.126-0.038,0.22-0.038c0.432,0,1.039,0.017,1.355,0.025l0.203,0.005l0.454-0.009
			c0.401-0.008,0.952-0.021,1.193-0.021c0.425,0,0.874,0.02,1.309,0.1c0.44,0.082,0.864,0.227,1.225,0.478l0.002,0.002
			c0.206,0.15,0.505,0.437,0.715,0.837c0.148,0.282,0.254,0.622,0.254,1.009c0,0.492-0.102,0.977-0.364,1.476
			c-0.245,0.465-0.63,0.943-1.202,1.446l0.115,0.144l0,0c0.99,1.239,1.838,2.298,2.552,3.041c0.34,0.347,0.614,0.549,0.84,0.669
			c0.219,0.115,0.396,0.154,0.549,0.174l0.005,0.001c0.242,0.042,0.371,0.043,0.441,0.043c0.069,0,0.127,0.026,0.17,0.063
			l0.001,0.001c0.053,0.047,0.083,0.116,0.083,0.175c0,0.099-0.044,0.167-0.158,0.207c-0.063,0.022-0.157,0.032-0.291,0.032h-0.824
			c-0.382,0-0.66-0.02-0.886-0.063c-0.231-0.044-0.408-0.112-0.584-0.208c-0.594-0.312-1.08-0.935-1.838-1.905l-0.002-0.002
			c-0.304-0.379-0.616-0.795-0.883-1.152c-0.218-0.292-0.408-0.544-0.532-0.696c-0.017-0.017-0.028-0.027-0.034-0.03l-0.001-0.001
			c-0.006-0.002-0.021-0.004-0.048-0.004l-0.002,0l-1.63-0.029v0.269c0,0.624,0,1.189,0.007,1.632
			c0.007,0.46,0.022,0.835,0.052,1.093c0.02,0.169,0.046,0.306,0.106,0.397c0.053,0.081,0.145,0.136,0.304,0.159l0.003,0.001
			c0.089,0.015,0.204,0.03,0.309,0.041h0.001c0.101,0.01,0.195,0.017,0.252,0.017c0.095,0,0.156,0.038,0.195,0.092h0.001
			c0.035,0.048,0.045,0.103,0.045,0.148c0,0.083-0.04,0.154-0.13,0.198v0c-0.052,0.026-0.124,0.041-0.215,0.041
			c-0.554,0-1.191-0.028-1.476-0.04l-0.141-0.005l-0.066,0.003c-0.221,0.01-0.902,0.042-1.239,0.042
			c-0.086,0-0.158-0.012-0.213-0.038v0c-0.086-0.041-0.132-0.107-0.132-0.202c0-0.056,0.022-0.123,0.071-0.172
			c0.04-0.04,0.097-0.068,0.169-0.068c0.048,0,0.105-0.006,0.164-0.015h0.001c0.074-0.01,0.148-0.026,0.208-0.041l0.002-0.001
			c0.158-0.037,0.189-0.228,0.236-0.526L93.128,85.9L93.128,85.9z M94.611,77.896l-0.002,0.01v4.088
			c0,0.013,0.002,0.022,0.004,0.026l0,0.001c0.004,0.007,0.012,0.015,0.023,0.024c0.088,0.043,0.284,0.084,0.525,0.117
			c0.259,0.034,0.568,0.056,0.855,0.056c0.151,0,0.313-0.004,0.471-0.032c0.152-0.027,0.304-0.078,0.444-0.17
			c0.213-0.142,0.402-0.382,0.535-0.707c0.124-0.304,0.198-0.683,0.198-1.128c0-0.754-0.202-1.346-0.567-1.747
			c-0.367-0.403-0.905-0.619-1.574-0.619c-0.168,0-0.344,0.009-0.499,0.021c-0.177,0.015-0.323,0.033-0.398,0.047
			C94.619,77.889,94.614,77.893,94.611,77.896L94.611,77.896z M103.192,85.9l-0.006,0.036c-0.047,0.298-0.079,0.489-0.236,0.526
			l-0.002,0.001c-0.06,0.015-0.134,0.03-0.207,0.041h-0.001c-0.059,0.009-0.116,0.015-0.163,0.015c-0.073,0-0.13,0.028-0.17,0.068
			c-0.048,0.048-0.071,0.116-0.071,0.172c0,0.095,0.046,0.161,0.132,0.202v0c0.054,0.026,0.127,0.038,0.213,0.038
			c0.265,0,0.709-0.02,1.008-0.033h0.001c0.146-0.007,0.258-0.012,0.294-0.012c0.033,0,0.117,0.004,0.236,0.008
			c0.31,0.013,0.85,0.037,1.307,0.037c0.091,0,0.163-0.016,0.215-0.041v0c0.09-0.044,0.13-0.116,0.13-0.198
			c0-0.056-0.022-0.123-0.071-0.172c-0.04-0.04-0.096-0.068-0.169-0.068c-0.048,0-0.115-0.006-0.188-0.014
			c-0.096-0.011-0.202-0.028-0.299-0.044l-0.003-0.001c-0.157-0.023-0.245-0.077-0.294-0.157c-0.057-0.091-0.08-0.23-0.1-0.4
			c-0.029-0.258-0.045-0.636-0.052-1.1c-0.006-0.447-0.007-1.015-0.007-1.64v-0.952c0.445,0.504,1.306,1.425,2.111,2.257
			c0.753,0.778,1.459,1.48,1.731,1.691l0,0l0.072,0.055c0.547,0.418,0.904,0.691,1.601,0.751v-0.001
			c0.153,0.015,0.291,0.023,0.437,0.027c0.156,0.004,0.306,0.004,0.488,0.004h0.674c0.131,0,0.221-0.016,0.28-0.042
			c0.103-0.044,0.139-0.115,0.139-0.197c0-0.079-0.043-0.146-0.11-0.188l-0.001,0c-0.051-0.033-0.119-0.052-0.189-0.052
			c-0.049,0-0.196-0.016-0.378-0.056c-0.119-0.026-0.253-0.064-0.381-0.113v0c-0.551-0.223-0.724-0.378-1.57-1.135l-0.278-0.248
			c-0.247-0.226-0.963-0.932-1.697-1.662c-0.76-0.757-1.539-1.541-1.832-1.847c0.188-0.193,0.59-0.586,1.032-1.014
			c0.718-0.695,1.544-1.484,1.735-1.657l0.002-0.002l0.208-0.198l0,0c0.435-0.416,0.682-0.654,1.132-0.854v-0.001
			c0.123-0.05,0.255-0.093,0.378-0.124v-0.001c0.111-0.027,0.217-0.043,0.301-0.043c0.089,0,0.153-0.025,0.197-0.066
			c0.053-0.048,0.072-0.109,0.072-0.174c0-0.086-0.04-0.15-0.124-0.189c-0.05-0.023-0.118-0.035-0.205-0.035
			c-0.214,0-0.692,0.014-1,0.023l-0.273,0.007v0c-0.167,0-0.35-0.008-0.525-0.015c-0.171-0.007-0.336-0.015-0.463-0.015
			c-0.069,0-0.132,0.015-0.18,0.043c-0.066,0.04-0.104,0.101-0.104,0.182c0,0.058,0.027,0.122,0.076,0.171l0.001,0.001
			c0.037,0.036,0.089,0.067,0.151,0.079l0.008,0.002c0.014,0.002,0.025,0.007,0.029,0.013c0.013,0.018,0.019,0.054,0.019,0.108
			c0,0.141-0.283,0.423-0.606,0.746h0l-0.073,0.073l-0.001,0.001c-0.209,0.215-0.751,0.756-1.323,1.326
			c-0.609,0.607-1.251,1.247-1.562,1.565v-0.491c0-1.973,0-2.332,0.03-2.731v-0.001c0.013-0.203,0.038-0.342,0.093-0.429
			c0.048-0.076,0.13-0.122,0.265-0.152c0.073-0.013,0.128-0.02,0.173-0.023h0.001c0.046-0.003,0.085-0.003,0.127-0.003
			c0.066,0,0.124-0.03,0.165-0.07l0.001-0.001c0.046-0.046,0.074-0.111,0.074-0.169c0-0.093-0.038-0.158-0.123-0.201l-0.001-0.001
			c-0.054-0.026-0.126-0.038-0.22-0.038c-0.242,0-0.667,0.013-0.97,0.022c-0.158,0.004-0.278,0.008-0.333,0.008v0l-0.188-0.005
			c-0.295-0.008-0.86-0.025-1.294-0.025c-0.095,0-0.167,0.012-0.22,0.038l-0.002,0.001c-0.085,0.043-0.123,0.108-0.123,0.201
			c0,0.058,0.032,0.12,0.074,0.163l0.001,0.001c0.043,0.043,0.105,0.075,0.164,0.075c0.057,0,0.14,0.004,0.22,0.009
			c0.082,0.005,0.162,0.013,0.211,0.02h0c0.175,0.024,0.274,0.073,0.327,0.153c0.06,0.089,0.082,0.232,0.095,0.427v0.001
			c0.015,0.202,0.022,0.393,0.026,0.772c0.003,0.352,0.003,0.95,0.003,1.959v2.247C103.265,84.387,103.265,85.387,103.192,85.9
			L103.192,85.9L103.192,85.9z M113.166,85.9L113.166,85.9c0.073-0.514,0.073-1.514,0.073-2.737v-2.247c0-1.009,0-1.607-0.003-1.959
			c-0.003-0.38-0.011-0.57-0.026-0.772v-0.001c-0.014-0.195-0.035-0.337-0.096-0.427c-0.053-0.08-0.153-0.129-0.327-0.153h-0.001
			c-0.049-0.007-0.129-0.015-0.211-0.02c-0.08-0.005-0.163-0.009-0.22-0.009c-0.06,0-0.121-0.032-0.164-0.075l-0.001-0.001
			c-0.043-0.044-0.074-0.105-0.074-0.163c0-0.093,0.038-0.158,0.123-0.201l0.001-0.001c0.054-0.026,0.126-0.038,0.221-0.038
			c0.433,0,1.024,0.017,1.332,0.025l0.199,0.005l0.169,0.001c0.62,0.003,2.703,0.012,2.966-0.001
			c0.197-0.011,0.383-0.041,0.502-0.06l0.001-0.001l0.077-0.012c0.012-0.004,0.026-0.011,0.041-0.017l0.001,0
			c0.049-0.022,0.1-0.045,0.164-0.045c0.079,0,0.132,0.042,0.164,0.105l0.001,0.002c0.021,0.043,0.03,0.097,0.03,0.148
			c0,0.048-0.013,0.099-0.03,0.168c-0.023,0.092-0.058,0.228-0.075,0.441l-0.001,0.007c-0.004,0.034-0.012,0.141-0.021,0.265
			c-0.015,0.212-0.034,0.476-0.056,0.583l-0.001,0.005c-0.012,0.052-0.041,0.112-0.08,0.156c-0.043,0.049-0.101,0.082-0.171,0.082
			c-0.089,0-0.153-0.038-0.196-0.109c-0.03-0.05-0.044-0.114-0.044-0.191c0-0.049-0.005-0.135-0.02-0.225V78.43
			c-0.009-0.059-0.024-0.121-0.045-0.173c-0.031-0.073-0.071-0.125-0.165-0.167c-0.121-0.054-0.324-0.096-0.67-0.139l-0.001,0
			c-0.075-0.01-0.318-0.019-0.605-0.026c-0.45-0.01-1.021-0.016-1.22-0.017v3.459c0.169,0,0.604-0.001,0.989-0.003h0.001
			c0.489-0.003,0.994-0.011,1.139-0.025h0.001l0.023-0.002c0.27-0.025,0.44-0.042,0.537-0.139l0.051-0.052
			c0.085-0.088,0.148-0.152,0.239-0.152c0.066,0,0.124,0.026,0.165,0.082l0.001,0.001l0,0c0.028,0.039,0.044,0.092,0.044,0.156
			c0,0.039-0.01,0.087-0.025,0.155c-0.023,0.111-0.061,0.29-0.08,0.558l-0.001,0.006c-0.012,0.106-0.026,0.258-0.036,0.402
			c-0.013,0.186-0.023,0.358-0.023,0.406c0,0.075-0.014,0.166-0.048,0.236c-0.041,0.082-0.107,0.139-0.207,0.139
			c-0.075,0-0.133-0.031-0.174-0.085h0c-0.034-0.045-0.05-0.103-0.05-0.17c0-0.057,0-0.12-0.006-0.178
			c-0.007-0.06-0.02-0.125-0.045-0.195l-0.003-0.008l-0.001-0.005c-0.015-0.061-0.043-0.117-0.108-0.161
			c-0.081-0.055-0.22-0.1-0.451-0.127h-0.001c-0.13-0.016-0.399-0.029-0.698-0.037c-0.472-0.014-1.032-0.02-1.233-0.021v1.019l0,0
			l-0.003,0.563c-0.003,0.603-0.008,1.418,0.003,1.6v0.003c0.013,0.38,0.068,0.604,0.248,0.721c0.199,0.13,0.565,0.167,1.19,0.167
			c0.17,0,0.412,0,0.65-0.017c0.231-0.016,0.461-0.047,0.618-0.108c0.148-0.065,0.26-0.144,0.341-0.26
			c0.084-0.12,0.141-0.286,0.175-0.518l0.001-0.006c0.018-0.092,0.04-0.157,0.072-0.204l0-0.001c0.049-0.071,0.11-0.099,0.195-0.099
			c0.107,0,0.168,0.063,0.2,0.154c0.019,0.054,0.025,0.119,0.025,0.175c0,0.058-0.039,0.403-0.086,0.725
			c-0.031,0.214-0.067,0.423-0.099,0.538c-0.117,0.428-0.273,0.429-0.863,0.429c-0.798,0-1.461-0.02-1.973-0.036l-0.322-0.01h-0.003
			c-0.547-0.03-0.892-0.03-1.087-0.03v0l-0.187,0.002H113.8c-0.099,0.001-0.231,0.006-0.374,0.013
			c-0.124,0.007-0.262,0.015-0.401,0.021c-0.138,0.005-0.268,0.01-0.37,0.01c-0.086,0-0.158-0.012-0.213-0.038v0
			c-0.086-0.041-0.132-0.107-0.132-0.202c0-0.056,0.022-0.123,0.07-0.172c0.04-0.04,0.097-0.068,0.17-0.068
			c0.063,0,0.15-0.017,0.231-0.032h0c0.051-0.01,0.101-0.019,0.15-0.025c0.149-0.026,0.181-0.224,0.227-0.516L113.166,85.9
			L113.166,85.9z M117.413,86.094l0.001-0.001L117.413,86.094L117.413,86.094z M126.143,77.981l-1.507-0.027v5.21
			c0,0.624,0,1.192,0.007,1.64c0.007,0.464,0.023,0.842,0.052,1.1c0.02,0.17,0.044,0.308,0.1,0.4v0.001
			c0.049,0.079,0.136,0.133,0.292,0.156l0.002,0.001c0.087,0.014,0.203,0.029,0.312,0.04c0.106,0.011,0.207,0.018,0.265,0.018
			c0.095,0,0.157,0.038,0.195,0.092c0.035,0.048,0.045,0.103,0.045,0.148c0,0.083-0.04,0.154-0.13,0.198v0
			c-0.052,0.026-0.123,0.041-0.215,0.041c-0.54,0-1.157-0.026-1.457-0.039l-0.173-0.007l-0.218,0.008
			c-0.313,0.013-0.869,0.037-1.145,0.037c-0.095,0-0.167-0.012-0.221-0.039h0c-0.085-0.043-0.123-0.109-0.123-0.2
			c0-0.061,0.024-0.123,0.076-0.168h0c0.039-0.034,0.094-0.056,0.163-0.056c0.052,0,0.113-0.007,0.172-0.017
			c0.064-0.011,0.128-0.025,0.185-0.039l0.003-0.001c0.089-0.02,0.148-0.074,0.188-0.155c0.05-0.101,0.076-0.245,0.097-0.419
			c0.058-0.515,0.059-1.516,0.059-2.74v-5.21l-1.765,0.028c-0.398,0.007-0.672,0.032-0.866,0.09
			c-0.172,0.051-0.278,0.132-0.357,0.253l0,0.001c-0.1,0.151-0.136,0.237-0.163,0.304l-0.001,0.001
			c-0.009,0.023-0.018,0.044-0.031,0.071c-0.024,0.077-0.058,0.127-0.101,0.16l-0.002,0.002c-0.051,0.038-0.103,0.047-0.158,0.047
			c-0.047,0-0.12-0.025-0.168-0.081c-0.033-0.039-0.057-0.092-0.057-0.158c0-0.061,0.039-0.273,0.09-0.516
			c0.076-0.371,0.179-0.822,0.199-0.896c0.012-0.054,0.044-0.136,0.078-0.197c0.046-0.081,0.11-0.143,0.187-0.143
			c0.057,0,0.108,0.019,0.179,0.045c0.086,0.032,0.213,0.079,0.422,0.105c0.146,0.018,0.315,0.031,0.473,0.039
			c0.238,0.014,0.455,0.019,0.544,0.019h4.97c0.212,0,0.393-0.007,0.544-0.018c0.153-0.011,0.277-0.026,0.379-0.04v0
			c0.071-0.011,0.14-0.023,0.198-0.034c0.089-0.016,0.152-0.027,0.197-0.027c0.195,0,0.195,0.142,0.195,0.284
			c0,0.236-0.017,0.681-0.031,1.022c-0.008,0.204-0.014,0.369-0.014,0.431c0,0.08-0.024,0.148-0.061,0.198l0,0
			c-0.049,0.066-0.121,0.102-0.196,0.102c-0.084,0-0.145-0.031-0.189-0.119l0-0.001c-0.024-0.05-0.041-0.122-0.049-0.228h0.001
			l-0.015-0.131c-0.018-0.152-0.083-0.285-0.267-0.383C127.115,78.069,126.749,77.996,126.143,77.981z"/>
	</g>
	<g>
		<path fill-rule="evenodd" clip-rule="evenodd" fill="#7F0E00" d="M59.023,43.285c-0.367,0.111-0.731,0.194-1.092,0.255
			c-0.363,0.06-0.726,0.1-1.09,0.123c-0.325,0.021-0.667,0.029-1.016,0.029c-0.345,0-0.683-0.009-1.017-0.021
			c-0.995-0.036-1.955-0.214-2.855-0.514c-0.923-0.308-1.782-0.746-2.55-1.292c-0.781-0.556-1.47-1.225-2.037-1.987
			c-0.556-0.746-0.995-1.581-1.29-2.483c-0.437-1.336-0.55-2.684-0.398-3.989c0.162-1.39,0.625-2.731,1.318-3.955
			c0.707-1.251,1.66-2.38,2.775-3.312c1.109-0.926,2.38-1.66,3.735-2.126c1.063-0.366,2.214-0.619,3.397-0.775
			c1.274-0.168,2.582-0.222,3.852-0.182c1.394,0.043,2.749,0.197,3.97,0.434c1.276,0.248,2.415,0.587,3.312,0.985v0.001
			c0.036,0.016,0.076,0.035,0.116,0.057c0.032,0.017,0.064,0.036,0.095,0.055c0.852,0.465,1.535,0.947,2.075,1.438
			c0.596,0.544,1.024,1.106,1.309,1.674c0.297,0.591,0.443,1.176,0.465,1.748c0.024,0.62-0.096,1.22-0.325,1.792
			c-0.182,0.456-0.432,0.884-0.728,1.281c-0.32,0.429-0.699,0.827-1.109,1.191l0.001,0.001c-0.551,0.489-1.177,0.92-1.791,1.275
			c-0.674,0.391-1.335,0.69-1.863,0.875c-0.175,0.256-0.339,0.508-0.496,0.757c-0.183,0.292-0.375,0.605-0.564,0.916
			c-0.729,1.197-1.441,2.367-2.387,3.375C61.872,41.939,60.682,42.782,59.023,43.285L59.023,43.285z M57.779,42.631
			c0.332-0.056,0.658-0.129,0.976-0.226c1.481-0.449,2.545-1.204,3.409-2.125c0.881-0.938,1.568-2.068,2.272-3.224
			c0.185-0.303,0.37-0.608,0.571-0.928c0.202-0.321,0.404-0.631,0.603-0.917l0.088-0.127l0.148-0.048
			c0.497-0.161,1.156-0.453,1.837-0.847c0.562-0.326,1.136-0.72,1.64-1.168h0.002c0.359-0.319,0.693-0.671,0.979-1.055
			c0.253-0.338,0.464-0.698,0.613-1.072c0.183-0.457,0.279-0.93,0.26-1.413c-0.017-0.446-0.133-0.905-0.368-1.373
			c-0.234-0.466-0.594-0.936-1.107-1.403c-0.493-0.449-1.12-0.89-1.904-1.317l-0.027-0.016c-0.016-0.01-0.034-0.02-0.052-0.03
			c-0.014-0.008-0.032-0.016-0.053-0.025h-0.002c-0.838-0.372-1.909-0.689-3.115-0.923c-1.182-0.23-2.487-0.379-3.822-0.42
			c-1.225-0.037-2.483,0.014-3.707,0.175c-1.116,0.147-2.205,0.387-3.216,0.735c-1.249,0.43-2.42,1.106-3.443,1.96
			c-1.033,0.864-1.914,1.907-2.566,3.06c-0.633,1.117-1.055,2.339-1.202,3.605c-0.137,1.178-0.035,2.395,0.359,3.6
			c0.264,0.807,0.656,1.553,1.153,2.22c0.508,0.683,1.127,1.284,1.832,1.785c0.695,0.494,1.473,0.89,2.309,1.17
			c0.818,0.273,1.691,0.435,2.596,0.467c0.335,0.012,0.665,0.021,0.984,0.021c0.314,0,0.634-0.008,0.959-0.029
			C57.116,42.723,57.449,42.687,57.779,42.631z"/>
		<path fill-rule="evenodd" clip-rule="evenodd" fill="#058ECE" d="M92.867,35.335c1.925-0.153,2.096-1.293,1.755-2.893
			c-1.206-5.667-6.974-11.181-12.696-12.118c-0.937-0.153-1.139,0.306-1.174,1.032c-0.055,1.165-0.077,2.331-0.122,3.496
			c-0.016,0.415-0.059,0.902-0.454,1.076c-0.521,0.229-0.872-0.229-1.161-0.573c-1.397-1.663-2.373-3.598-3.258-5.55
			c-0.467-1.028-1.038-1.397-2.099-1.373c-2.798,0.062-5.6,0.155-8.391-0.125c-1.049-0.105-2.673,0.181-1.237-2.004
			c-4.026,1.931-7.885,1.257-10.922-1.669c-1.421-1.369-1.473-2.408-0.106-3.914c2.063-2.272,4.509-4.056,7.288-5.339
			c4.054-1.871,8.359-2.87,12.8-2.549c5.785,0.418,11.504,1.184,16.388,4.906c1.954,1.489,4.58,1.626,6.893,2.399
			c0.882,0.295,1.785,0.541,2.645,0.891c0.707,0.287,0.893,0.711,0.133,1.242c-0.865,0.606-1.805,1.047-2.77,1.456
			c-0.556,0.236-1.113,0.472-0.452,1.239c1.293,1.503,2.255,3.199,2.97,5.065c0.516,1.346,1.211,2.623,2.728,3.208
			c0.639,0.247,0.782,0.772-0.047,1.016c-0.983,0.289-0.98,0.919-0.879,1.763c0.346,2.883,0.169,6.334-0.712,9.225
			c-0.411,1.35,0.599,2.306,0.147,3.729c-0.613,3.26-2.466,5.708-5.117,7.904c-0.191-2.364,0.574-4.309,1.354-6.226
			c0.555-1.365,0.581-2.05-1.263-2.081c-1.945-0.034-3.812-0.009-5.778,1.269C89.762,37.379,90.832,35.968,92.867,35.335
			L92.867,35.335z M61.329,10.074L61.329,10.074c-0.051-0.669-0.385-1.13-1.043-1.201c-0.69-0.075-1.109,0.358-1.167,1.01
			c-0.06,0.684,0.373,1.092,1.027,1.168C60.839,11.131,61.22,10.741,61.329,10.074z"/>
		<linearGradient id="SVGID_1_" gradientUnits="userSpaceOnUse" x1="84.2194" y1="54.9277" x2="69.4716" y2="38.5486">
			<stop  offset="0" style="stop-color:#E57019"/>
			<stop  offset="1" style="stop-color:#FFCC00"/>
		</linearGradient>
		<path fill-rule="evenodd" clip-rule="evenodd" fill="url(#SVGID_1_)" d="M81.105,33.533c2.941,0.503,4.033,2.551,4.134,5.515
			c0.069,2.029,0.345,4.081,1.384,5.929c1.215,2.16,0.938,4.315,0.442,6.707c-1.6,7.723-13.121,9.451-18.944,4.836
			c-2.915-2.31-4.409-7.144-3.36-10.939c0.934-3.377,2.59-6.1,5.887-7.721c1.589-0.781,2.303-2.522,3.286-3.943
			c1.816-2.624,3.326-2.885,5.948-1.083c0.243,0.167,0.441,0.36,0.747,0.375C80.683,33.386,81.052,33.357,81.105,33.533z"/>
		<path fill-rule="evenodd" clip-rule="evenodd" fill="#058ECE" d="M48.008,60.573c-5.389-4.313-8.759-9.951-10.633-16.504
			c-1.567-5.476-1.779-11.155-0.346-16.581c2.277-8.624,10.634-20.145,21.078-23.129c-6.593,4.172-11.279,8.828-14.008,16.409
			c-3.054,8.483-2.353,16.618,1.859,24.564c2.477,4.674,6.075,8.284,10.309,11.267c1.678,1.183,3.753,1.802,5.646,2.677
			c12.77,4.22,23.809,1.398,33.067-8.275c4.917-5.139,5.789-10.534,7.629-16.951C106.357,60.111,73.322,79.843,48.008,60.573z"/>
		<path fill-rule="evenodd" clip-rule="evenodd" fill="#649933" d="M27.095,24.412c2.164,3.901,4.059,7.444,5.534,11.699
			c0.138,0.399,0.363,0.8-0.063,1.164c-0.457,0.39-0.621-0.198-0.934-0.291c-7.123-2.134-13.376-6.249-14.618-14.113
			c-0.556-3.522-0.2-7.027,0.906-10.435c0.147-0.453,0.25-1.035,0.751-1.155c0.49-0.116,0.637,0.508,0.843,0.802
			c2.696,3.844,6.792,5.938,10.547,8.43c2.843,1.886,4.91,4.23,5.579,7.633c0.498,2.537,0.201,5.851-0.597,8.328
			c-0.097,0.301-0.041,0.836-0.608,0.75c-0.335-0.051-0.485-0.289-0.554-0.663C33.495,34.476,28.944,25.445,27.095,24.412z"/>
		<linearGradient id="SVGID_2_" gradientUnits="userSpaceOnUse" x1="63.6152" y1="24.5963" x2="53.5555" y2="38.4422">
			<stop  offset="0" style="stop-color:#E3000F"/>
			<stop  offset="1" style="stop-color:#750D00"/>
		</linearGradient>
		<path fill-rule="evenodd" clip-rule="evenodd" fill="url(#SVGID_2_)" d="M58.534,41.673c-1.158,0.351-2.415,0.359-3.666,0.314
			c-3.359-0.122-6.223-2.171-7.186-5.113c-1.549-4.737,1.876-9.712,6.372-11.261c4.363-1.503,10.355-0.898,13.302,0.409
			c7.331,3.928-0.657,8.241-2.106,8.382C63.171,37.216,62.17,40.57,58.534,41.673L58.534,41.673z M64.724,31.118L64.724,31.118
			c1.018-0.073,1.77-0.512,1.848-1.613c0.067-0.947-0.583-1.421-1.42-1.428c-1.048-0.009-1.879,0.429-1.908,1.663
			C63.22,30.729,63.881,31.021,64.724,31.118z"/>
		<path fill-rule="evenodd" clip-rule="evenodd" fill="#649933" d="M8.896,49.972l-0.005-0.004l-0.018-0.017
			c-3.157-2.528-5.134-5.91-6.814-9.493C1.179,38.582,0.426,36.651,0,34.331c4.424,3.079,9.231,2.656,14.018,2.477
			c3.414-0.127,6.832-0.503,10.245-0.246c6.184,0.465,10.01,4.278,12.851,9.363c0.914,1.636,1.806,3.302,2.238,5.541
			c-6.413-4.012-12.762-7.381-19.841-9.112c-0.443-0.108-0.935-0.014-1.74-0.014c8.09,2.96,12.001,5.274,18.556,9.257
			c0.889,0.541,0.672,0.917-0.173,1.173C26.294,55.762,18.089,57.928,8.896,49.972z"/>
		<path fill-rule="evenodd" clip-rule="evenodd" fill="#649933" d="M81.06,33.631c-0.193,0.095-0.378-0.246-0.431-0.422
			c0.464-1.322,0.8-2.654,0.584-4.083c-0.406-2.687,4.731-3.516,6.423,0.972c0.564,1.496,1.005,3.05,2.176,4.433
			c-4.913,0.519-5.391-1.407-7.411-4.69l-0.01-0.007C81.487,30.738,82.249,31.429,81.06,33.631z"/>
		<path fill-rule="evenodd" clip-rule="evenodd" fill="#649933" d="M102.424,39.572c0.019-0.182,0.039-0.363,0.058-0.542
			C102.615,39.228,102.654,39.414,102.424,39.572z"/>
		<path fill-rule="evenodd" clip-rule="evenodd" fill="#181815" d="M33.416,53.563c0.321-0.117,0.642-0.234,0.964-0.352
			C34.151,53.582,33.799,53.616,33.416,53.563z"/>
	</g>
</g>
<polygon fill-rule="evenodd" clip-rule="evenodd" fill="#FFFFFF" points="-1238.376,129.288 -1236.962,127.852 -1236.526,128.281 
	-1235.118,126.85 -1234.676,127.285 -1234.684,127.294 -1230.236,131.752 -1230.236,131.753 -1230.147,131.841 -1231.483,133.199 
	-1231.089,133.586 -1231.743,134.251 -1231.457,134.52 -1231.875,134.945 -1231.58,135.236 -1232.766,136.456 -1232.355,136.861 
	-1233.312,137.833 -1232.91,138.229 -1233.323,138.649 -1232.967,138.999 -1233.887,139.933 -1234.296,140.349 -1235.745,138.88 
	-1235.329,138.457 -1235.7,138.091 -1239.995,142.327 -1240.427,141.902 -1240.861,142.344 -1241.86,141.377 -1241.432,140.942 
	-1241.83,140.551 -1239.776,138.51 -1240.854,137.444 -1240.43,137.013 -1241.89,135.52 -1241.458,135.081 -1242.34,134.184 
	-1241.89,133.726 -1242.328,133.301 -1241.868,132.841 -1242.287,132.428 -1238.786,128.884 "/>
</svg>
