<?xml version="1.0" standalone="no"?>
<!DOCTYPE svg PUBLIC "-//W3C//DTD SVG 1.1//EN" "http://www.w3.org/Graphics/SVG/1.1/DTD/svg11.dtd" >
<svg xmlns="http://www.w3.org/2000/svg">
<metadata></metadata>
<defs>
<font id="forgetmenotmedium" horiz-adv-x="487" >
<font-face units-per-em="2048" ascent="1638" descent="-410" />
<missing-glyph horiz-adv-x="872" />
<glyph horiz-adv-x="2048" />
<glyph horiz-adv-x="2048" />
<glyph unicode="&#xd;" horiz-adv-x="681" />
<glyph unicode=" "  horiz-adv-x="872" />
<glyph unicode="&#x09;" horiz-adv-x="872" />
<glyph unicode="&#xa0;" horiz-adv-x="872" />
<glyph unicode="!" horiz-adv-x="204" d="M27 387q20 166 18 516q-2 369 10 529q2 20 17.5 33.5t36 11.5t34 -18t11.5 -36q-12 -156 -11 -518q2 -358 -18 -530q-2 -20 -18.5 -32.5t-37 -10.5t-32.5 18.5t-10 36.5zM37 81.5q0 20.5 14.5 35t34.5 14.5t34.5 -14.5t14.5 -35t-14.5 -34.5t-34.5 -14t-34.5 14 t-14.5 34.5z" />
<glyph unicode="&#x22;" horiz-adv-x="505" d="M68 911q4 49 6 232q2 147 10 237q2 20 18.5 33.5t36 11.5t32.5 -18.5t11 -34.5q-8 -86 -10 -229q-2 -186 -6 -236q-2 -20 -16.5 -34.5t-35 -12.5t-34.5 16.5t-12 34.5zM308 1144q-3 210 1 240q0 20 15.5 33t36 13t34 -15t13.5 -33q-4 -31 -1 -239.5t3 -239.5 q0 -18 -14.5 -31.5t-35 -13.5t-35 13.5t-14.5 31.5q0 31 -3 241z" />
<glyph unicode="#" horiz-adv-x="1294" d="M57 911.5q-2 20.5 11.5 36t33.5 17.5q76 4 191 28q-8 236 2 428q2 20 16.5 33.5t35 12.5t33.5 -15.5t13 -34.5q-10 -182 -2 -401q25 4 49 10q145 27 361 59q-23 178 -29 334q0 20 13.5 35.5t34 15.5t35.5 -13t15 -34q6 -152 29 -321l246 39q20 2 36.5 -9.5t19.5 -32 t-8 -36.5t-32 -21l-250 -38q23 -145 62 -353q154 23 223 35q20 2 36.5 -9t19.5 -31.5t-8 -37t-32 -20.5q-68 -12 -221 -33q61 -305 80 -405q2 -20 -9 -37t-31.5 -20t-37 8.5t-20.5 31.5q-16 90 -78 408q-53 -8 -102 -17q-78 -14 -197 -37q-125 -27 -172 -34v-9 q2 -16 16 -165q10 -106 11 -173q0 -20 -14.5 -34.5t-35 -14.5t-35 14.5t-14.5 34.5q0 53 -10 162q-14 152 -16 168q-68 -12 -129 -20q-20 -2 -37 10t-19 32.5t10.5 37t32.5 18.5q63 8 135 21q-16 213 -22 360q-111 -23 -186 -29q-20 -2 -36 11.5t-18 34zM393 915 q6 -147 23 -364q43 8 168 35q117 23 192 37q50 8 101 16q-41 203 -62 350q-213 -33 -358 -61q-27 -4 -64 -13z" />
<glyph unicode="$" horiz-adv-x="1046" d="M39 283q-23 68 2 116q31 59 117 74q74 10 172 -43q74 -41 168 -123l39 -33q-2 63 -6.5 231.5t-6.5 260.5l-59 20q-8 2 -53 17l-62 20q-16 4 -49 16.5t-56.5 22.5t-43.5 23q-135 82 -117 223q20 143 136 228t265 94l-16 143q-2 20 10.5 36.5t32.5 18.5t36.5 -10t18.5 -33 l17 -160q133 -16 232 -96t130 -221q6 -18 -5 -35.5t-30.5 -23t-37 6t-21.5 31.5q-23 98 -92.5 160t-165.5 78q16 -209 27 -489q139 -55 232 -144.5t120 -240.5q31 -190 -47 -314q-45 -72 -119 -117q127 -106 270.5 -169.5t301 -79t307.5 42.5q18 6 36.5 -2.5t25.5 -28 t-1 -37.5t-29 -27q-131 -47 -272 -49t-270 39t-247 107.5t-222 160.5q-31 -10 -62 -16v-61q2 -82 8 -136q2 -20 -10 -36.5t-32.5 -18.5t-37 10.5t-18.5 32.5q-6 59 -8 146v55q-111 0 -216.5 40t-174.5 111q-88 90 -117 179zM129 356q-6 -14 4 -43q20 -66 92 -139 q55 -57 140.5 -89t179.5 -34l-4 86q-57 55 -107 96q-86 74 -151 111q-70 37 -109 31t-45 -19zM182 1096q-10 -78 70 -125q39 -25 244 -92l24 -9q-10 260 -26 461q-121 -6 -209 -69q-90 -66 -103 -166zM623 727l6 -264q6 -184 10 -283l12 -14l78 -76q74 37 115 100 q57 90 30 244q-18 109 -82.5 177.5t-168.5 115.5z" />
<glyph unicode="%" horiz-adv-x="1032" d="M73 -12.5q-5 20.5 7 37.5l70 112q37 61 59 105l65 123l58 110l61 125q49 96 58 115q225 457 403 686q12 16 32.5 18t37 -10t18.5 -33t-10 -37q-172 -221 -393 -667q-8 -18 -56 -115l-65 -127l-56 -111q-41 -80 -67 -124l-62 -109q-37 -61 -71 -115q-10 -16 -30.5 -21 t-37 6t-21.5 31.5zM78 1015.5q0 20.5 14 35t34.5 14.5t35 -14.5t14.5 -35t-14.5 -34.5t-35 -14t-34.5 14t-14 34.5zM913 350.5q0 20.5 14.5 34.5t35 14t35 -14t14.5 -34.5t-14.5 -35t-35 -14.5t-35 14.5t-14.5 35z" />
<glyph unicode="&#x26;" horiz-adv-x="1349" d="M55 418q53 147 176 276q39 41 105 92l-25 45q-115 231 -20 402q51 92 144 131t181 18q98 -23 138 -104q41 -88 -11 -207q-49 -121 -208 -252l-68 -55q61 -90 145 -174q102 -102 234 -205l4 10q43 109 61.5 180.5t12.5 155.5q-88 -14 -183 -12q-20 0 -33.5 15.5t-13.5 36 t15.5 33.5t35.5 13q135 -4 250 31q109 31 279 106q18 8 37.5 1t28 -25.5t1 -38t-25.5 -27.5q-184 -82 -293 -112q8 -104 -12 -191q-20 -82 -70 -203l-14 -34q213 -156 452 -277q231 -117 457 -180l86 -27q57 -16 93 -24.5t75 -8.5q20 0 34.5 -14t14.5 -34.5t-14.5 -35 t-34.5 -14.5q-45 0 -92 9.5t-109.5 30t-77.5 24.5q-223 59 -466.5 182t-462.5 281q-176 -311 -496 -281q-82 8 -163 39t-130 88q-109 135 -37 336zM147 385q-53 -150 23 -242q29 -37 92.5 -60.5t130.5 -29.5q264 -25 408 240q-141 109 -258 227q-91 91 -154 185 q-53 -43 -88 -80q-109 -113 -154 -240zM377 1184q-68 -123 22 -310q9 -12 15 -26l57 47q141 115 182 213q33 80 11 127q-18 41 -70 53q-57 12 -119.5 -14.5t-97.5 -89.5z" />
<glyph unicode="'" horiz-adv-x="186" d="M37 877q6 106 8 302.5t2 237.5q0 20 15.5 33.5t36 13.5t33.5 -15.5t13 -35.5q0 -39 -2 -237.5t-8 -303.5q-2 -20 -17.5 -34.5t-35 -12.5t-33.5 17.5t-12 34.5z" />
<glyph unicode="(" horiz-adv-x="382" d="M33.5 503q13.5 247 83 484.5t190.5 458.5q10 16 29.5 22.5t37 -4t23.5 -30t-4 -37.5q-117 -211 -183.5 -438.5t-77.5 -460t55.5 -459.5t211.5 -414q12 -16 10.5 -36.5t-18 -33t-37 -10.5t-32.5 19q-156 203 -229 447.5t-59.5 491.5z" />
<glyph unicode=")" horiz-adv-x="382" d="M-78 -360.5q-2 20.5 10 36.5q166 209 238 415t68 413q-6 209 -78 479q-68 256 -164 414q-10 16 -5 35.5t22.5 31t37 6t31.5 -23.5q100 -168 172 -438q55 -211 72.5 -383t-6 -344t-100.5 -335t-210 -331q-12 -16 -32.5 -18.5t-37 10t-18.5 33z" />
<glyph unicode="*" horiz-adv-x="663" d="M37 1267.5q-4 20.5 7 38t31.5 21.5t37.5 -8q96 -63 166 -96q14 74 8 149q-2 20 11 35.5t33.5 17.5t36 -11.5t17.5 -33.5q6 -72 -4 -137q51 29 133 96q14 14 34.5 12.5t34 -17t11.5 -36t-19 -32.5q-94 -80 -157 -115l114 -119q14 -14 12.5 -34.5t-16 -35t-35 -12.5 t-34.5 17q-23 27 -117 120q-45 -74 -117 -141q-14 -12 -34.5 -12t-34 15.5t-13.5 36t17 34.5q55 51 92 106q-82 37 -193 111q-18 10 -22 30.5z" />
<glyph unicode="+" horiz-adv-x="970" d="M40 499.5q3 20.5 18.5 33t35.5 10.5q152 -20 373 -6q0 276 -4 469q0 18 14.5 33.5t33.5 15.5t34.5 -14.5t15.5 -34.5q4 -190 4 -463q270 23 375 22q20 0 34.5 -14t14.5 -34.5t-14 -35t-35 -14.5q-100 0 -375 -23q-2 -340 -2 -378q0 -20 -14 -35t-34.5 -15t-35 14.5 t-14.5 35.5q0 49 2 372q-225 -16 -385 6q-20 4 -32.5 19.5t-9.5 36z" />
<glyph unicode="," horiz-adv-x="270" d="M25.5 -244.5q5.5 19.5 21.5 29.5q80 51 82 153.5t-59 192.5q-12 18 -7 37.5t22 31t37 6t30 -21.5q47 -76 67 -157q20 -84 -5.5 -177.5t-113.5 -146.5q-18 -12 -37.5 -7t-31 22.5t-6 37z" />
<glyph unicode="-" d="M56 569.5q1 20.5 15.5 33.5t34.5 13q195 -10 310 -10q20 0 34.5 -14t14.5 -34.5t-14.5 -35t-34.5 -14.5q-119 0 -314 10q-20 2 -33.5 16.5t-12.5 35z" />
<glyph unicode="." horiz-adv-x="176" d="M33 83.5q0 20.5 14 35t34.5 14.5t35 -14.5t14.5 -35t-14.5 -34.5t-35 -14t-34.5 14t-14 34.5z" />
<glyph unicode="/" horiz-adv-x="614" d="M-52 -7.5q-7 19.5 1 38.5q80 182 172 440q123 348 164 451q25 61 73 166.5t81.5 190.5t52.5 163q4 20 21 31.5t36.5 6.5t31 -23t5.5 -36q-18 -84 -54 -176t-86.5 -200.5t-70.5 -159.5q-39 -100 -162 -447q-106 -303 -174 -448q-8 -18 -27.5 -25.5t-38 0.5t-25.5 27.5z " />
<glyph unicode="0" horiz-adv-x="841" d="M66 408q-39 291 69.5 566t343.5 437q18 10 38 7t32 -19q16 -25 2 -51q17 -1 29 -9q137 -94 206.5 -309t57.5 -446q-4 -113 -31 -216.5t-75 -192.5t-127 -146.5t-179 -69.5q-170 -18 -274 160q-70 121 -92 289zM164 420q18 -147 80 -252q72 -123 176 -111q145 16 230 163 t95 368q10 215 -51 404.5t-172 264.5q-24 19 -20 48q-195 -147 -284 -389t-54 -496z" />
<glyph unicode="1" horiz-adv-x="204" d="M86 657.5q0 151.5 4 286.5q2 45 12 219q10 131 9 213q0 18 14 33.5t33.5 15.5t35 -14.5t15.5 -34.5q2 -86 -8 -221q-10 -170 -13 -215q-4 -133 -4 -284.5t2 -337t2 -285.5q0 -20 -14 -34.5t-34.5 -14.5t-35 14t-14.5 35q0 100 -2 286.5t-2 338z" />
<glyph unicode="2" horiz-adv-x="913" d="M35 -2v4q0 6 2 18q6 29 10 43q10 27 35 80q61 123 205 265l61 59q53 51 74 74l65 65q45 47 78 86q31 37 64 80q184 244 151 418q-18 106 -141 119q-57 4 -120.5 -11.5t-108.5 -44.5q-55 -35 -90 -75.5t-70 -106.5q-8 -18 -27.5 -24.5t-38 3t-24.5 29t4 37.5q39 76 82 126 t110 93q59 39 138 58.5t153 11.5q86 -8 149.5 -56.5t82.5 -142.5q39 -217 -170 -493q-33 -43 -70 -84l-80 -88l-67 -70l-78 -76l-58 -57q-86 -84 -137 -156q113 31 230 0q66 -16 151 -73q100 -63 125 -76q193 -94 385.5 -140.5t403 -34t384.5 102.5q18 10 38 4t29 -24.5 t3 -38t-24 -27.5q-190 -100 -422 -113.5t-434.5 35.5t-403.5 146q-27 14 -137 84q-74 47 -123 61q-96 25 -184 -4q-90 -27 -109 -98q0 -2 -1 -4t-1 -5q-2 -8 -8 -14q-2 -2 -7 -6t-20.5 -10t-27.5 2q-27 10 -31 35v14z" />
<glyph unicode="3" horiz-adv-x="1007" d="M55 184q6 72 46 107t102 26q80 -12 205 -100q59 -43 133 -106q152 55 245 181t97 288q6 219 -105 297q-104 72 -284 -5q-72 -55 -107 -77l-22 -11q-16 -6 -33 -6q-18 2 -31 15q-14 14 -16 32q-2 16 6 33q8 23 35 41q16 10 39 23l36 16q23 10 27 12l14 6l23 19 q90 72 139 137q61 84 47 150q-10 57 -61 75q-51 16 -135 -6q-82 -20 -150.5 -68.5t-87.5 -91.5q-8 -20 -26.5 -27t-38 1t-26.5 26.5t1 36.5q29 72 117 132.5t186 86.5q111 29 193 3q102 -35 127 -148q20 -111 -68 -229q-16 -23 -37 -45q109 4 189 -52q154 -109 147 -381 q-4 -178 -101.5 -321t-256.5 -215l45 -41q29 -27 32 -31q102 -76 261 -104.5t312.5 -17t297.5 50.5q18 6 35.5 -4.5t23.5 -30t-4 -37t-31 -23.5q-150 -41 -312.5 -54t-341.5 19.5t-298 122.5q-10 6 -43 37l-68 62l-14 14q-143 -39 -254 -31q-94 8 -147 52q-70 57 -62 161z M154 176q-4 -53 24.5 -76.5t91.5 -29.5q66 -4 154 10q-39 33 -74 57q-104 74 -162 82q-16 4 -22 -2q-10 -8 -12 -41z" />
<glyph unicode="4" horiz-adv-x="1323" d="M29 395q2 8 8 16.5t14 16.5q10 10 29 25l29 24l10 6q20 20 41.5 47t36.5 48l39 55q27 37 36 53q291 403 373 668q0 8 -2 14q-1 27 19 43q2 10 2 19q4 20 21 31.5t36.5 8t31 -20.5t9.5 -36q-6 -33 -17 -70q6 -80 5 -206q0 -186 2 -238q8 -178 20 -389q29 -4 86 -14 q100 -20 152 -25q156 -14 219 70q12 16 31.5 19t36 -9t19.5 -31.5t-9 -36.5q-96 -129 -308 -110q-51 6 -159 26q-41 8 -62 11l25 -351q2 -20 -11.5 -35.5t-34 -17.5t-35.5 11.5t-17 33.5q-16 223 -25 371q-162 8 -299 -2q-41 -4 -168 -47l-84 -29q-18 -8 -29 -10l-12 -4h-10 q-20 0 -37 14q-23 23 -12 51zM256 492q76 23 117 26q137 10 301 2q-12 203 -21 375q-2 61 -2 219q-111 -223 -297 -485q-4 -4 -41 -57.5t-57 -79.5z" />
<glyph unicode="5" horiz-adv-x="1228" d="M68 268q-6 20 5 38t30.5 23t37 -6.5t21.5 -29.5q41 -162 182 -207q135 -45 297 27q170 76 270 243q100 170 62 392q-25 145 -150 192q-123 47 -264 -16q-133 -57 -209 -160q-8 -12 -14 -23q-8 -59 -25 -90q-6 -14 -16 -24q-16 -12 -35 -13q-27 0 -43 23q-10 16 -8 37 q0 10 2 24q8 35 29 74q2 10 2 23q4 49 8 162.5t8 158.5q2 39 8 64q8 37 29 55q25 23 63 16q12 -2 19 -4h2q139 0 251.5 25.5t200 50.5t192.5 63.5t189 93t136 119.5q14 16 33.5 18.5t36 -11t18 -33t-10.5 -35.5q-61 -76 -155 -138.5t-212 -105.5t-204 -67.5t-203 -48.5 q-123 -29 -272 -29q-6 0 -19 2q-2 -16 -6 -43q-2 -43 -6 -154q-2 -33 -2 -51q74 68 172 111q180 80 340 18q82 -31 139 -98q55 -70 74 -170q23 -131 0.5 -253t-81 -214t-137.5 -161.5t-171 -112.5q-199 -86 -369 -31q-193 63 -245 276z" />
<glyph unicode="6" horiz-adv-x="933" d="M63 584q6 193 74 379t166 297q55 61 140 96t171 35q96 0 174 -46.5t113 -142.5q10 -31 12 -78q2 -45 7 -57q2 -20 -9.5 -37.5t-31 -20.5t-37 8.5t-21.5 29.5q-2 20 -6 71q-2 35 -8 51q-43 123 -193 123q-68 0 -133 -27.5t-104 -70.5q-80 -90 -140.5 -246.5t-72.5 -320.5 q12 20 26 41q127 164 332 163q233 0 328 -155q80 -131 31 -320q-47 -174 -172 -284q-143 -127 -303 -80q-96 29 -167 89t-109 142t-54 172q-16 88 -13 189zM178 377q55 -231 256 -291q106 -31 211 59q102 90 141 236q39 147 -20 244q-66 109 -244 108q-158 0 -254 -127 q-49 -63 -71 -200q-5 -19 -19 -29z" />
<glyph unicode="7" horiz-adv-x="1024" d="M41 1283.5q-2 19.5 11.5 35.5t31.5 18q47 4 131 4q82 -2 121 2q262 25 412 25h112h74q16 0 24 -2h11h6q2 -2 6 -2q6 -2 10 -4q18 -10 23 -31q4 -14 0 -29l-4 -8q-2 -4 -6 -8q-4 -6 -11 -14q-10 -10 -30 -33l-95 -100q-145 -156 -182 -211q-129 -195 -204.5 -437.5 t-75.5 -474.5q0 -20 -14.5 -34.5t-35 -14.5t-35 14.5t-14.5 34.5q0 246 80 502t217 463q41 63 193 225l61 66h-110q-143 0 -404 -25q-43 -4 -129 -2q-78 0 -119 -4q-20 -2 -36.5 11.5t-18.5 33z" />
<glyph unicode="8" horiz-adv-x="731" d="M39 1139q25 102 119 170.5t211 87.5q119 18 226 -21t153 -141l4 -25q2 -6 2 -16q0 -16 -2 -43q0 -8 -2 -68q0 -20 -15.5 -33.5t-36.5 -13.5q-31 2 -43 29q-27 -53 -59 -109l-84 -135q-51 -80 -66 -104q66 -59 112 -113.5t90 -127.5t61.5 -159t7.5 -182 q-12 -109 -99.5 -152.5t-187.5 -25.5q-102 20 -177 96t-79 195q-6 186 145 448q-158 135 -202 189q-109 127 -78 254zM133 1114q-18 -78 57 -166q42 -47 181 -166q18 27 59 90l59 99q20 33 49 84t48.5 93t31.5 83q2 6 7 12q-82 82 -240 55q-94 -14 -164.5 -65t-87.5 -119z M272 252q2 -80 53.5 -132t123.5 -67q70 -12 116.5 13.5t52.5 80.5q18 143 -42 257t-181 225q-129 -225 -123 -377z" />
<glyph unicode="9" horiz-adv-x="935" d="M53.5 823q-6.5 121 27.5 230.5t99 197.5q104 147 244 187q162 43 305 -78q86 -70 113 -195q0 -2 2 -4q4 -6 6 -16q8 -29 12 -103v-26q6 -33 11.5 -56.5t-9.5 -41.5v-15q0 -37 -1 -95t-1 -83v-59q4 -113 27 -304q31 -266 35 -309q2 -20 -11.5 -35.5t-34 -17.5t-36 11.5 t-17.5 33.5q-6 80 -32 305q-25 213 -29 312v83q-25 -70 -55 -124q-55 -98 -131 -155.5t-160 -64.5q-88 -6 -167 47.5t-136 155.5q-55 98 -61.5 219zM154.5 927.5q-19.5 -147.5 46.5 -274.5q90 -162 210.5 -153.5t211.5 170.5q25 43 45 100t28 90l29 113q2 12 12 119 q4 39 8 53q-20 92 -77 141q-104 86 -217 55q-106 -29 -191 -147q-86 -119 -105.5 -266.5z" />
<glyph unicode=":" horiz-adv-x="274" d="M154 106.5q0 20.5 14 35t34.5 14.5t35 -14.5t14.5 -35t-14.5 -35t-35 -14.5t-34.5 14.5t-14 35zM164 919.5q0 20.5 14.5 35t34.5 14.5t34.5 -14.5t14.5 -35t-14.5 -35t-34.5 -14.5t-34.5 14.5t-14.5 35z" />
<glyph unicode=";" horiz-adv-x="286" d="M44 -225.5q-3 20.5 9 37.5q53 74 60.5 144.5t-23.5 162.5q-6 18 3 36.5t28.5 24.5t38 -3.5t24.5 -29.5q37 -104 27 -201.5t-80 -191.5q-10 -16 -30.5 -19t-37 8t-19.5 31.5zM94 901.5q0 20.5 14.5 34.5t35 14t35 -14t14.5 -34.5t-14.5 -35t-35 -14.5t-35 14.5t-14.5 35z " />
<glyph unicode="&#x3c;" horiz-adv-x="1017" d="M37 446q-4 37 24 60q12 8 33 12l19 4h4q43 18 123 60l163 86l187 96q53 29 147 86q84 53 162 111q16 12 36.5 10t33 -18.5t10.5 -37t-18 -32.5q-74 -57 -171.5 -116.5t-152.5 -90.5l-191 -98q-135 -70 -161 -82q-82 -43 -84 -45l98 -48q61 -25 201.5 -74.5t249.5 -99.5 q106 -47 196 -106q18 -12 21.5 -31.5t-8 -37t-31 -20.5t-35.5 7q-84 55 -185.5 99t-238.5 93.5t-207 79.5q-20 8 -104 49l-66 33q-14 6 -22 11l-9 6q-4 2 -8 6l-6 6q-8 10 -10 22z" />
<glyph unicode="=" horiz-adv-x="1071" d="M39 331.5q0 20.5 15.5 34t35.5 13.5q399 -14 918 -14q20 0 34.5 -14.5t14.5 -35t-14.5 -35t-34.5 -14.5q-518 0 -922 15q-20 0 -33.5 15t-13.5 35.5zM83 717.5q3 19.5 19.5 32t36.5 10.5q96 -16 214 -22.5t201 -6.5t226.5 2t210.5 2q20 0 34.5 -14t14.5 -34.5t-14 -35 t-35 -14.5q-63 0 -207.5 -2t-229.5 -2t-208 7t-223 22q-18 4 -30.5 20t-9.5 35.5z" />
<glyph unicode="&#x3e;" horiz-adv-x="1024" d="M57 169q6 19 25 28q299 150 567 252q4 2 55.5 18t88.5 31q18 8 34 14l-6 2l-10 2q-2 0 -3 1t-3 2t-4 1l-13 6l-4 4l-53 25l-190 88q-147 68 -244 117q-90 47 -184 106q-16 10 -21.5 31t6 37t32 21t36.5 -7q86 -55 178 -102t236 -113l192 -88l62 -31q12 -4 53 -20 q2 0 10 -2q20 -4 25 -4q23 -4 36 -15q31 -25 25 -61q-6 -27 -31 -45q-14 -12 -37 -23q-33 -18 -90 -38q-37 -14 -87 -31t-52 -17q-266 -102 -559 -247q-18 -10 -37.5 -4t-29 24.5t-3.5 37.5z" />
<glyph unicode="?" horiz-adv-x="815" d="M36 1107q-7 20 1 38q35 78 133 153.5t211 114.5q57 20 113.5 27.5t113 0.5t102.5 -42t74 -94q61 -133 -16 -263q-6 -10 -14.5 -22t-18.5 -25l-18 -20q-6 -10 -21 -25l-20 -20l-21 -25l-22 -20l-23 -23l-20 -20q-63 -61 -100 -104.5t-77 -105t-53.5 -130t-1.5 -148.5 q2 -18 -10 -34.5t-31.5 -19.5t-36 9.5t-20.5 32.5q-6 39 -6 77t6 73.5t14.5 67.5t22.5 62.5t27.5 56.5t35.5 54l37 49q16 20 41 45l41 45q16 16 41 39q131 129 164 183q49 84 10 170q-29 66 -104 79q-74 14 -176 -22q-98 -35 -181 -96q-82 -63 -106 -121q-8 -18 -27.5 -25.5 t-38 0.5t-25.5 28zM324 94.5q0 20.5 14 34.5t34.5 14t35 -14t14.5 -34.5t-14.5 -35t-35 -14.5t-34.5 14.5t-14 35z" />
<glyph unicode="@" horiz-adv-x="1638" d="M52 620.5q-1 161.5 65 313.5q72 164 202 290t286.5 189.5t337.5 50t343 -115.5q178 -113 223 -258q29 -88 19 -230.5t-58 -269.5q-23 -66 -57.5 -121t-80.5 -100t-109.5 -63.5t-137.5 -2.5q-94 18 -141 88q-37 59 -37 146q0 22 2 47q-31 -39 -61 -72q-94 -100 -182 -121 q-119 -29 -201 84q-84 113 -41 281q37 147 145 266q117 125 242 137q119 8 203 -90h2q0 6 2 10l4 8q8 12 20 19q25 12 48 2q27 -10 30 -39q2 -14 -2 -35q0 -6 -6 -24q-2 -10 -2 -13q-6 -45 -20 -96q12 -61 16 -76q6 -20 -4 -37.5t-29 -23.5q-12 -4 -24 -2q-45 -147 -43 -223 q0 -59 20 -93q25 -37 80 -49q90 -18 158.5 42.5t113.5 185.5q41 113 52 241q8 129 -15 195q-33 111 -182 205q-139 86 -296 98t-295 -43t-254 -167t-181 -261q-57 -131 -57 -272.5t51 -262t155 -215.5q102 -96 242 -137q233 -70 492 6q260 76 454 250q14 14 34.5 12t35 -16 t12.5 -34.5t-16 -35.5q-211 -188 -496 -270q-281 -84 -545 -6q-162 47 -282 158q-119 111 -176.5 250t-58.5 300.5zM520 733q-33 -125 23 -201q45 -59 100 -45q59 14 133 93q66 70 123 163t74 148q4 10 10 37q-6 18 -12 30q-59 109 -152 103q-88 -8 -178 -107 q-90 -100 -121 -221z" />
<glyph unicode="A" horiz-adv-x="1277" d="M16 -4q8 104 78 222t178 226q51 49 107 97q84 352 346 839q4 16 17.5 27.5t29.5 11.5q20 0 35.5 -13t15.5 -34q6 -197 119 -557q57 -184 127 -335.5t167 -293t215 -242t275.5 -168t341.5 -87.5q18 -3 32 -19q12 -14 12 -30v-6q-2 -20 -19 -32q-14 -12 -32 -12h-5 q-186 20 -347 86t-281.5 162t-224 229.5t-176.5 274.5t-134 311q-100 -2 -162 -18q-117 -33 -266 -150q-36 -163 -36 -303q0 -76 11 -145q2 -20 -10 -36.5t-31.5 -20t-36 9t-20.5 30.5q-12 76 -12 158q0 96 16 201l-4 -4q-100 -100 -160.5 -202.5t-66.5 -184.5 q-2 -20 -17.5 -33.5t-35.5 -11.5q-20 1 -34 17q-12 14 -12 31v5zM506 635q109 70 201 94q63 18 153 23l-12 34q-80 258 -107 412q-159 -313 -235 -563z" />
<glyph unicode="B" horiz-adv-x="1273" d="M-130 1394q-2 6 -2 13q0 13 8 25q12 16 32 20q168 36 349 36q89 0 181 -9q356 -37 492 -205q54 -68 54 -133q0 -38 -19 -76q-39 -74 -156 -127q-16 -6 -33 -14q23 -6 43 -17q90 -41 179 -118.5t151 -172.5q91 -141 91 -268q0 -90 -46 -174q-39 -70 -156 -121 q289 -117 473 -159q90 -20 257 -49t229 -42q19 -3 31 -21q9 -13 9 -28q0 -5 -1 -10q-4 -20 -22 -32q-13 -9 -27 -8q-5 0 -11 1q-61 14 -229 43q-162 27 -260 51q-100 25 -215 62q-117 41 -176 63l-203 82q-130 -31 -230 -31q-53 0 -98 9q-49 10 -98 32q-14 -12 -34.5 -12 t-34 15.5t-13.5 35.5v13q-39 36 -39 79q0 20 8 41q8 25 33 39q0 125 -18 486q-16 307 -16 510q0 88 3 157v4q-60 4 -118 4q-165 0 -310 -30q-20 -6 -36.5 5t-21.5 31zM455 1376q-4 -79 -4 -170q0 -114 6 -248q47 4 71 5h11q133 23 229 65q86 39 108 82q7 14 8 30 q0 33 -32 72q-102 129 -397 164zM461 856q2 -49 6 -137q18 -324 18 -479q41 -4 95 -19q92 -23 196 -63l125 -49q170 47 207 114q33 59 33 125q0 99 -74 213q-53 84 -133 152q-80 70 -156 104q-102 47 -223 47h-10q-45 -6 -84 -8zM485 117q45 -25 101 -35q29 -6 72 -7 q25 0 55 3q-88 31 -156 49q-41 10 -72 12v-22z" />
<glyph unicode="C" horiz-adv-x="1075" d="M59 748q14 186 106.5 357t231.5 263q119 78 240 78q38 0 76 -8q178 -35 321 -228q12 -16 9 -35.5t-19 -32t-36 -9t-32 19.5q-121 162 -262 188q-29 6 -58 6q-92 0 -183 -61q-119 -78 -201 -229.5t-94 -317.5q-3 -38 -3 -74q0 -293 181 -464q174 -162 551 -248 q224 -50 438 -50q280 0 543 85q18 6 36.5 -3.5t24.5 -28.5q2 -8 2 -15q0 -11 -5 -23q-9 -18 -30 -24q-274 -89 -565 -89q-227 0 -465 54q-406 90 -596 270q-214 201 -214 536q0 41 3 83z" />
<glyph unicode="D" horiz-adv-x="1638" d="M-37 326q25 63 127 86q70 16 180 16q180 0 301 -29l56 -12q-14 244 -17 338q-2 90 -4 203q-2 129 -4 234.5t-8 201.5q-183 50 -366 50l-134 -7q-20 -2 -35.5 11.5t-17.5 34t11.5 35.5t33.5 17q70 7 139 7q207 0 416 -60q14 0 27 -8q438 -137 739 -486l80 -94 q29 -37 66.5 -99.5t56.5 -119.5q23 -73 23 -146q-1 -93 -39 -185q-68 -164 -218 -257q184 -123 428 -338q14 -13 16 -33q0 -3 1 -6q-1 -16 -13 -30q-14 -16 -34 -17h-4q-17 0 -31 13q-272 238 -465 362q-102 -37 -232 -47q-49 -4 -100 -4q-84 1 -172 11q-141 16 -243.5 34 t-225.5 49q-129 29 -205 64q-72 33 -108 75q-35 40 -35 86q0 24 10 50zM54 288q-2 -5 -3 -9q0 -12 12 -25q20 -25 74 -49q68 -31 185 -60q180 -41 317 -61q0 86 -6 201l-82 20q-111 25 -281 25q-98 0 -157 -15q-53 -11 -59 -27zM694 1331q6 -119 10 -344t5 -258 q2 -78 18 -369q297 -83 555 -241q143 68 212 210q41 84 41 170q0 58 -19 117q-14 47 -46 99.5t-61 87.5l-76 90q-262 305 -639 438zM731 258q6 -104 6 -188q111 -13 206 -13q121 0 216 21q-201 111 -428 180z" />
<glyph unicode="E" horiz-adv-x="819" d="M25 961q4 123 82.5 235.5t195.5 177.5q80 42 162 58q33 6 68 7q50 1 101 -13q87 -22 154 -91q14 -14 14.5 -34.5t-14 -35t-35 -14t-34.5 14.5q-73 72 -173 74q-4 0 -8 1q-96 0 -186 -53q-98 -55 -164 -145q-65 -95 -65 -191q1 -68 63 -94q44 -19 103 -18q28 0 59 4 q14 2 133 43q4 0 15 6l22 8q16 8 25.5 10t19.5 0q31 -6 39 -37q6 -20 -4 -36l-8 -13q-25 -29 -78 -51q-43 -18 -53 -26q-158 -121 -223 -271q-43 -98 -44 -179q0 -109 80 -185q125 -119 435 -168q172 -27 391 -30q47 -1 91 -1q159 0 277 9q150 11 269 28q20 2 35.5 -10.5 t18.5 -32.5q1 -4 1 -8q0 -16 -10 -28q-12 -15 -33 -19q-121 -15 -273 -27q-120 -9 -288 -10q-44 0 -90 1q-228 3 -406 29q-338 55 -485 195q-112 107 -112 256q0 101 52 221q51 117 158 223h-12q-83 0 -146 27q-120 53 -120 183v10z" />
<glyph unicode="F" horiz-adv-x="864" d="M-32 1300q-3 9 -3 17q1 11 5 21q8 18 28 26q447 158 927 158h12q486 -2 941 -158q18 -8 28 -26q5 -10 5 -20q0 -8 -3 -16q-7 -20 -24.5 -29t-38.5 -3q-360 124 -748 148q-86 5 -172 6q-299 0 -591 -64q4 -10 4 -19q0 -377 6 -571q75 -9 165 -9q137 0 308 21 q20 2 36.5 -10t18.5 -32.5t-10 -37t-33 -18.5q-178 -22 -321 -22q-86 0 -160 8q14 -340 58 -613q2 -20 -10 -37q-12 -16 -32 -19q-4 -1 -8 -1q-14 0 -28 9q-16 11 -21 32q-31 201 -47 444.5t-18 406.5t-2 443q-106 -27 -209 -65q-18 -6 -37 2t-26 28z" />
<glyph unicode="G" horiz-adv-x="1150" d="M24 769q3 116 21 223.5t72.5 212t138.5 173.5q98 80 222 102q45 9 88 9q74 0 141 -25q113 -39 181 -135q62 -88 62 -211v-22q0 -20 -15 -33.5t-35.5 -13.5t-34 15t-13.5 36v16q0 93 -45 158q-49 69 -133 98q-50 18 -107 18q-34 0 -71 -6q-99 -18 -179 -84 q-133 -109 -173 -308q-22 -109 -22 -224q0 -96 15 -195q20 -152 107 -297q98 -168 213 -192q28 -5 58 -5q49 0 101 15q84 23 154 78q70 57 106 131q29 58 29 119q0 16 -2 33v12q-12 -2 -24 -2q-18 -4 -152 -23q-74 -10 -104 -10h-9q-20 2 -33.5 17.5t-11.5 36t18 33.5t36 11 h5q21 0 85 11q131 18 153 20q82 10 135 10h17q39 -2 63 -10q43 -16 56 -51q8 -23 8 -52q0 -40 -15 -91q-4 -12 -18 -62q-10 -33 -12 -47q-32 -170 -32 -315q0 -76 9 -146q39 -270 217 -291q12 -2 23 -2q30 0 47 13q16 8 66 63q14 14 34.5 15.5t34.5 -11.5q16 -16 16 -39 q0 -17 -12 -30q-59 -66 -86 -82q-43 -27 -104 -27q-15 0 -31 2q-72 8 -128 43t-90 89t-53.5 113.5t-29.5 131.5q-12 81 -12 170q0 147 32 319q4 23 17 60q14 47 18 59q9 37 9 61q0 8 -1 15q-10 2 -30 4h-15q2 -4 2 -6q2 -21 2 -42q0 -84 -37 -161q-48 -98 -135 -168 q-86 -68 -190 -98q-59 -18 -118 -18q-44 0 -87 10q-158 33 -276 235q-96 164 -121 336q-15 79 -15 175v33z" />
<glyph unicode="H" horiz-adv-x="1273" d="M-39 -2q14 188 132 373.5t300 333.5q0 76 2 213t3 249.5t1 212.5q0 20 14.5 35t35 15t35 -14.5t14.5 -35.5q0 -92 -6 -602q160 112 332 172q161 57 308 56h19q4 244 4 387q0 20 14.5 34.5t35 14.5t34.5 -14.5t14 -34.5q0 -150 -4 -424.5t-4 -498.5t8 -423 q0 -20 -13 -35.5t-33.5 -15.5t-36 13.5t-15.5 33.5q-7 178 -7 454q0 184 3 410h-18q-146 -1 -310 -63q-174 -66 -334 -189v-108q0 -289 9 -502q0 -20 -13.5 -35.5t-34 -15.5t-36 13t-15.5 34q-8 189 -8 433v99q-143 -131 -231 -283.5t-101 -299.5q-2 -20 -17 -34 q-13 -12 -30 -11h-6q-20 2 -34 17q-12 13 -11 31v5z" />
<glyph unicode="I" horiz-adv-x="172" d="M39 456q0 228 4 506.5t4 430.5q0 20 14.5 34.5t35 14.5t34.5 -14.5t14 -34.5q0 -152 -4 -429.5t-4 -505t8 -427.5q0 -20 -13 -35.5t-33.5 -15.5t-36 13t-15.5 34q-8 201 -8 429z" />
<glyph unicode="J" horiz-adv-x="1024" d="M-80 1212q3 21 19 33q164 115 414.5 200t520.5 120q175 22 336 22q10 0 20 -1q171 -1 333.5 -38t277.5 -106q18 -12 23 -32q2 -6 2 -12q0 -13 -8 -24q-11 -18 -30.5 -23t-35.5 5q-154 94 -401 123q-101 11 -204 11q-147 0 -300 -22q-66 -8 -123 -20q41 -244 70 -619 q16 -225 16 -380q0 -188 -31 -252q-59 -123 -186 -175q-74 -29 -150 -29q-54 0 -109 15q-132 37 -210 146q-8 12 -15.5 26.5t-13.5 24.5t-12 27.5t-10 26.5t-9 28l-8 24q-2 8 -6 29.5t-5 25t-5 27t-6 23.5q-2 20 9 37.5t30.5 20.5t37 -8t21.5 -30l18 -88q4 -25 21 -65 q14 -43 35 -72q57 -82 157 -109q40 -11 80 -11q57 0 111 23q94 38 135 124q23 45 23 213q0 147 -17 372q-27 369 -67 607q-426 -92 -672 -267q-16 -10 -36.5 -7t-31.5 20q-9 12 -9 27q0 5 1 9z" />
<glyph unicode="K" horiz-adv-x="851" d="M35 1389q0 20 13 35q14 14 34 15h2q18 -1 32 -13q14 -14 17 -33q6 -127 25 -613q92 94 180 209q154 201 166 295q2 20 18.5 32.5t37 10.5t32.5 -18.5t10 -36.5q-16 -119 -186 -342q-106 -139 -207 -240q20 -33 51 -68.5t51 -56.5l66 -65l63 -62q330 -330 681.5 -539.5 t752.5 -273.5q20 -5 32 -21q9 -13 9 -28q0 -4 -1 -8q-4 -20 -20 -32q-14 -9 -30 -9h-6q-420 68 -783.5 285t-703.5 557l-52 49l-53 53l-51 53q-29 31 -51 60q14 -307 33 -535q2 -20 -11.5 -35.5t-34 -17.5t-36 11t-17.5 34q-23 264 -41 768t-22 580z" />
<glyph unicode="L" horiz-adv-x="747" d="M61 1399q0 20 13.5 35.5t34 15.5t36 -13.5t15.5 -33.5q3 -158 3 -476v-169v-96q0 -373 7 -547q90 0 219 -47l123 -50q72 -31 111 -43q158 -53 298 -87q141 -34 297 -54q99 -13 195 -12q57 0 113 4q152 12 289 59q20 6 37 -3q18 -8 25 -28q3 -9 3 -17q0 -11 -5 -21 q-9 -18 -28 -25q-147 -49 -311 -63q-64 -6 -129 -6q-100 0 -201 14q-166 22 -310 57t-306 88q-39 14 -115 45q-86 35 -119 49q-112 41 -188 41q-15 0 -29 -2h-2q-6 -2 -12 -2q-20 0 -35.5 13.5t-15.5 33.5q-9 222 -9 595v76v137q0 330 -4 532z" />
<glyph unicode="M" horiz-adv-x="1386" d="M49 1350v6q-1 19 11 33q14 16 34.5 19t35.5 -12.5t17 -35.5l5 -66q74 121 170 162q44 21 86 21q35 0 69 -15q80 -33 133 -139q16 -33 29 -80q47 76 117.5 129t148.5 70q30 6 59 6q60 0 118 -25q85 -37 141 -135q59 -104 63 -399q0 -59 -2 -221q-1 -43 -1 -76q0 -66 3 -94 q29 -463 197 -688q190 -250 594 -256h11q190 0 392 65q18 8 36 -2q20 -9 26 -31q3 -9 2 -18q0 -12 -6 -24q-10 -20 -29 -25q-217 -72 -421 -72h-11q-451 6 -670 297q-188 248 -219 743q-3 33 -3 103q0 35 1 80q2 160 2 217q-4 266 -47 344q-64 112 -166 112q-23 0 -49 -6 q-63 -14 -122 -60t-93 -110q-12 -23 -18.5 -46t-8.5 -40.5t-6 -54.5l-4 -57q2 -49 4 -105q2 -113 2 -177t-1 -161.5t-1 -126.5q0 -23 -14.5 -38t-35 -15t-34.5 15.5t-14 37.5q0 29 1 125.5t1 161t-2 176.5q-8 317 -56 408q-37 74 -84 94q-16 6 -34 6q-23 0 -48 -10 q-47 -23 -91 -76t-70 -121q-23 -57 -29 -170q2 -133 6 -352q4 -494 19 -709q2 -23 -11.5 -39t-34 -18t-36 12.5t-17.5 36.5q-12 203 -18 717q-2 205 -6 322q-2 8 -2 20l2 12q-6 195 -21 355z" />
<glyph unicode="N" horiz-adv-x="866" d="M53 1395v5q-1 18 11 32q14 16 34 18h6q16 0 30 -12q16 -14 18 -35q4 -59 8 -125q100 125 241 156q31 6 61 6q60 0 116 -24q86 -36 141 -130q59 -100 63 -383q0 -57 -2 -213q-1 -41 -1 -73q0 -64 3 -91q29 -444 197 -661q190 -240 594 -246h11q190 0 392 64q18 6 37 -3.5 t25 -29.5q2 -8 2 -16q0 -12 -6 -24q-10 -20 -29 -26q-214 -67 -415 -67h-17q-451 6 -670 284q-188 240 -219 717q-3 31 -3 98q0 33 1 76q2 154 2 209q-4 256 -47 330q-64 107 -167 107q-23 0 -48 -5q-63 -12 -121.5 -57t-93.5 -107q-8 -16 -14.5 -30.5t-9.5 -31.5t-3 -30 l-4 -39q-2 -25 -4 -39q4 -117 6 -307q6 -514 19 -704q2 -23 -11.5 -38.5t-34 -17.5t-36 11.5t-17.5 36.5q-12 184 -18 710q-2 173 -4 273q-6 12 -4 24q2 10 2 19q-6 217 -21 389z" />
<glyph unicode="O" horiz-adv-x="1118" d="M72 479q-14 84 -14 171q0 101 19 205q36 194 124 327q41 63 110.5 126.5t145.5 100.5q49 25 96 35q13 11 29 11q8 0 16 -3l6 -2h5q112 0 184 -90l4 -8q172 -123 243 -328q53 -152 53 -313q0 -56 -6 -113q-29 -270 -172 -448q-143 -180 -336 -180q-23 0 -47 3 q-102 12 -184 57.5t-137 116t-89 153.5t-50 179zM168 494q29 -176 123 -289q94 -115 254 -133q19 -2 37 -3q145 0 258 142q125 156 149 397q6 55 6 109q1 99 -21 193q-34 144 -132 265.5t-250 174.5q-41 -4 -90 -29q-66 -31 -125.5 -85t-93.5 -108q-76 -117 -109 -293 q-18 -97 -18 -190q0 -77 12 -151z" />
<glyph unicode="P" horiz-adv-x="1114" d="M-68 1409.5q0 20.5 15 34.5t35 14q41 0 130 1t138 2h21q45 0 113 -3q85 -4 140.5 -14t131 -29.5t132 -49.5t118 -75t112.5 -104q80 -92 92 -221q2 -20 2 -39q0 -116 -72 -201q-84 -96 -225 -154q-193 -76 -430 -82q14 -256 14 -454q0 -20 -14 -34.5t-34.5 -14.5t-35 14 t-14.5 35q0 205 -14 467q-16 16 -17 39q0 16 13 30l-25 351q-18 287 -25 440q-41 0 -124.5 -1t-126.5 -1q-20 0 -35 14.5t-15 35zM332 1362q6 -154 25.5 -438.5t21.5 -335.5q223 4 399 76q235 95 235 265q0 13 -1 27q-10 96 -68 164q-115 133 -263 183.5t-349 58.5z" />
<glyph unicode="Q" horiz-adv-x="1150" d="M72 479q-14 84 -14 171q0 101 19 205q36 194 124 327q41 63 110.5 126.5t145.5 100.5q49 25 96 35q13 11 29 11q8 0 16 -3l6 -2h5q112 0 184 -90l4 -8q172 -123 243 -328q53 -152 53 -313q0 -56 -6 -113q-29 -270 -172 -448q-39 -49 -84 -87q197 -147 586 -217 q314 -57 675 -57q149 0 306 10q18 2 34 -12q17 -16 17 -38q0 -17 -12 -31q-14 -15 -35 -17q-156 -9 -305 -9q-369 0 -696 58q-445 80 -658 258q-80 -37 -166 -37q-22 0 -45 2q-102 12 -184 57.5t-137 116t-89 153.5t-50 179zM168 494q29 -176 123 -290t254 -132q18 -2 36 -2 q44 0 87 14q-63 76 -95 164q0 4 -7 24.5t-9 25.5t-7 23.5t-7 26.5l-6 25q-4 16 -4.5 26.5t-1.5 25.5t-1 29.5t2 30.5q2 20 18.5 32.5t37 10.5t33 -18.5t10.5 -36.5q-3 -20 -3 -38q0 -21 4 -40q7 -35 30 -100q4 -10 6 -14q27 -82 90 -150q43 31 82 80q125 158 149 397 q6 55 6 109q0 100 -21 193q-34 145 -132.5 265.5t-249.5 174.5q-41 -4 -90 -29q-66 -31 -125.5 -85t-93.5 -108q-76 -117 -109 -293q-18 -97 -18 -190q0 -77 12 -151z" />
<glyph unicode="R" horiz-adv-x="1167" d="M-10 1266v5q0 18 12 32q76 88 197 135q92 34 181 34q29 0 58 -4q131 -16 201 -102q63 -78 64 -193q0 -30 -5 -63q-25 -182 -194 -334h10h18q72 0 140 -28q76 -32 139 -91t112.5 -123.5t98.5 -150.5q53 -90 162 -317q90 -180 137 -248q131 -182 266 -258q106 -59 359 -119 q188 -43 346 -43q20 0 34.5 -14.5t14.5 -35t-14.5 -34.5t-34.5 -14q-164 0 -367 47q-270 63 -385 127q-156 88 -301 286q-49 70 -143 263q-106 219 -160 311q-98 170 -199 258q-98 86 -209 86h-10q-90 -4 -143 -17.5t-107 -50.5q2 -25 7.5 -111.5t6.5 -125.5t3 -109 q1 -35 1 -66.5t-1 -59.5q-2 -58 -9 -115q-2 -18 -18 -32t-35.5 -11.5t-33 18.5t-11.5 37q8 67 9 151v53q0 49 -1 83q-2 52 -9 162t-9 145q-4 14 0 28q-2 18 -2 35q-10 258 -16 608q-43 -29 -74 -63q-12 -14 -32.5 -16t-36 11t-17.5 34zM246 1348q8 -362 16 -623 q307 172 338 397q4 27 4 51q0 80 -41 130q-45 57 -137 67q-22 3 -44 3q-66 0 -136 -25z" />
<glyph unicode="S" horiz-adv-x="1228" d="M78 512q31 84 102.5 127t163.5 53q31 3 60 3q135 0 247 -60q139 -76 310 -264l90 -103q12 36 12 79q0 98 -66 228q-86 176 -258 361l-55 49q-45 41 -63 59q-82 80 -101 154q-6 23 -6 44q0 69 66 122t176 74q46 8 93 8q57 0 117 -12q106 -22 164 -93q12 -16 10.5 -36.5 t-18 -32.5t-37 -10t-32.5 18q-33 44 -113 60q-39 8 -81 8q-43 0 -87 -9q-84 -14 -131 -51q-28 -25 -28 -52q0 -6 1 -13q12 -47 76 -109q16 -16 60 -55q41 -35 59 -58q182 -190 276 -380q76 -154 76 -275q0 -87 -39 -158q55 -61 105 -102q252 -217 576.5 -310t715.5 -104 q20 0 33.5 -15t13.5 -35.5t-15.5 -34t-35.5 -13.5q-190 4 -361.5 27.5t-347.5 71.5t-341 133t-304 206q-47 41 -100 99q-111 -96 -330 -109q-33 -2 -64 -2q-185 0 -315 61q-139 70 -229 226q-54 96 -54 169q0 30 9 56zM172 479q-4 -12 -4 -27q0 -45 41 -116 q74 -129 188 -184q55 -29 146 -43q65 -10 134 -11q25 0 50 2q184 10 266 82l-106 123q-158 178 -281 244q-91 48 -200 48q-26 0 -52 -3q-147 -14 -182 -115z" />
<glyph unicode="T" horiz-adv-x="819" d="M6 1218q6 20 25 27q197 104 463 168q266 65 546 85q249 18 477 18h56q254 -2 495 -25q20 -1 34 -17q12 -13 12 -30v-6q-2 -20 -17.5 -33.5t-36.5 -11.5q-299 28 -574 28q-440 0 -820 -71q-38 -240 -38 -483q0 -400 103 -806q6 -20 -4 -37q-11 -18 -31 -23q-7 -2 -13 -2 q-13 0 -25 7q-18 10 -21 31q-108 417 -108 830q0 231 34 460q-285 -63 -487 -168q-18 -10 -38 -4q-20 7 -29 25q-5 11 -5 21q-1 9 2 17z" />
<glyph unicode="U" horiz-adv-x="1107" d="M45 844q18 193 96 538q4 20 20.5 31.5t37 6.5t32 -21.5t5.5 -36.5q-74 -342 -93 -528q-10 -100 -11 -185q0 -199 58 -315q41 -84 105.5 -148.5t134.5 -91.5q42 -15 80 -15q109 0 197 118q20 29 35.5 62.5t27.5 80.5l21 78q6 29 17 92t15 82l-4 51q-8 117 -12 209 q-4 115 -4 191.5t1 189.5t1 145q0 20 14.5 34.5t34.5 14.5t34.5 -14t14.5 -35q0 -35 -1 -145.5t-1 -185t4 -187.5q2 -115 10 -209q41 -477 199 -616q14 -15 16 -35q0 -3 1 -5q-1 -17 -13 -29q-14 -14 -34 -17h-6q-17 0 -29 12q-121 109 -183 361q-33 -117 -82 -183 q-80 -111 -185 -145q-47 -15 -93 -15q-56 0 -109 23q-92 33 -169.5 112t-127.5 179q-66 136 -66 358q0 89 11 193z" />
<glyph unicode="V" horiz-adv-x="940" d="M33 1380v6q0 17 9 32q11 18 30.5 21t37 -8.5t21.5 -29.5q127 -655 279 -1067l22 -62q8 29 17 50q109 270 247 471q133 188 261 321t284 232.5t342 147.5t412 48q20 0 34.5 -14.5t14.5 -34.5t-14.5 -34.5t-34.5 -14.5q-211 0 -383 -44t-318.5 -137.5t-269.5 -218.5 q-117 -123 -246 -309q-135 -195 -239 -450q-20 -51 -39 -158l-11 -70q-4 -14 -5 -21t-3 -13q-6 -12 -14 -19q-14 -12 -30 -12h-5q-20 0 -35 16q-27 29 -26 80l-2 47q-8 43 -54 166q-152 410 -282 1079z" />
<glyph unicode="W" horiz-adv-x="1495" d="M70 1362q-2 7 -2 14q0 12 7 22q11 16 31.5 21.5t37 -5.5t20.5 -32l262 -1185q84 264 217 485q10 16 29 23q8 8 18 10q18 8 36.5 0t25.5 -29q68 -174 168 -477q35 117 102 256q119 240 276.5 441.5t355 360t445.5 248t518 89.5q20 0 34.5 -14.5t14.5 -35t-14 -35 t-35 -14.5q-252 0 -483 -83t-419.5 -233.5t-340.5 -342.5q-147 -188 -262 -426q-104 -215 -133 -387q2 -18 -7 -34.5t-26 -23.5q-8 -2 -15 -2q-11 -1 -23 5q-18 10 -25 28l-2 6v2q-139 418 -189 555q-135 -246 -215 -549q-4 -20 -21.5 -30t-38 -5t-30.5 23q-23 10 -27 35z " />
<glyph unicode="X" horiz-adv-x="901" d="M27 32v6q0 17 12 30q135 162 342 546q-252 406 -328 764q-6 20 5.5 37t32 22t36.5 -6.5t20 -31.5q70 -315 287 -684l6 12q252 485 273 692q2 19 17 33q13 12 30 12h6q20 -2 33.5 -17.5t11.5 -35.5q-23 -221 -283 -729l-32 -64q143 -225 303 -389q244 -250 649 -454 q406 -205 733 -226q19 -2 33 -17q13 -13 12 -30q0 -22 -18 -38q-14 -13 -30 -13h-5q-346 23 -770 236q-420 213 -674 473q-147 154 -287 360q-199 -358 -329 -514q-12 -16 -33 -18t-36 11t-17 33z" />
<glyph unicode="Y" horiz-adv-x="880" d="M37 1376q-2 7 -2 14q0 11 6 23q10 19 29.5 24t38 -5.5t22.5 -30.5q25 -92 66 -201.5t71 -183.5l90 -205l84 -188q252 395 617 661q121 88 371 223q10 6 21 6q7 0 15 -2q19 -6 29 -23q6 -11 6 -23q0 -7 -2 -14q-6 -19 -24 -30q-254 -141 -359 -215q-176 -129 -334.5 -304 t-283.5 -375.5t-197 -426.5q-66 -207 -66 -400q0 -19 1 -38q0 -20 -13.5 -35.5t-34 -15.5t-36 13.5t-15.5 33.5v32q0 403 244 832q-4 4 -6 10l-111 250q-88 193 -140 328t-87 266z" />
<glyph unicode="Z" horiz-adv-x="874" d="M47 59q119 352 291 682q-78 -14 -135 -57q-16 -10 -37 -7t-32 19.5t-8 37t19 32.5q98 70 250 80q129 236 312 502h-119h-123q-203 0 -330 -11q-20 -2 -35.5 11.5t-17.5 34t11.5 36t33.5 17.5q131 10 338 10q283 0 334 2q20 0 35.5 -13.5t15.5 -33.5q0 -14 -6 -27l-4 -8 q-195 -279 -330 -516q63 0 99 3t83 14.5t86 33.5q18 10 38 5t30 -23.5t5 -38t-24 -29.5q-53 -31 -121.5 -45t-102.5 -16t-116 -2h-32q-168 -311 -285 -637q102 25 251 24q98 0 216 -10q115 -10 308.5 -38t242.5 -34q377 -41 821 -57q20 0 33.5 -15.5t13.5 -36t-15.5 -33.5 t-35.5 -13q-449 16 -829 57q-49 6 -240 33q-188 29 -309 39q-113 10 -205 10q-201 0 -305 -49q-18 -8 -38 -1t-28 25q-2 4 -2 9q-5 9 -5 19q0 7 3 15z" />
<glyph unicode="[" horiz-adv-x="477" d="M63 1317q0 31 3 49q4 29 12 45q8 14 22 21q4 2 13 4q6 2 16 4q14 2 41 4q41 2 111 4q150 4 186 0q20 -2 32.5 -18.5t10.5 -37t-18.5 -32.5t-36.5 -10q-29 4 -172 0q-66 0 -107 -4h-14v-29q0 -43 4 -115q2 -45 8 -116.5t6 -84.5q4 -121 4 -254t-1 -308t-1 -255 q0 -299 -10 -395q-4 -33 -6 -57v-11h6q45 0 119 3q164 2 184.5 4t35.5 -11.5t17 -34t-11 -36t-34 -17.5q-23 -2 -190 -4q-76 -2 -121 -2h-41q-8 2 -12 2h-8q-4 0 -7 2q-12 2 -22 12.5t-14 26.5q0 4 -2 10v21q0 16 2 43q2 25 6 61q10 92 10 383q0 80 1 254t1 306.5t-4 252.5 q0 14 -6 84q-6 66 -8 115q-4 82 -5 121z" />
<glyph unicode="\" horiz-adv-x="614" d="M-73 1430.5q7 19.5 25.5 27.5t38 1t27.5 -25l281 -641q12 -29 133 -330q80 -197 146 -316q10 -18 3.5 -37.5t-23.5 -29.5t-36.5 -4t-29.5 22q-68 125 -150 328q-125 309 -133 326l-281 641q-8 18 -1 37.5z" />
<glyph unicode="]" horiz-adv-x="452" d="M-50 -327.5q-3 20.5 9 36t33 19.5q16 2 71 4q14 0 49 2t54 2l96 6q8 0 14 2q2 14 3 41q4 61 4 168q0 162 -2 266q-2 66 -9.5 268.5t-7.5 268.5v268q0 16 6 68q6 66 9 90q6 51 4 82v18q-8 2 -19 2q-33 6 -88 6q-92 2 -156 -4q-20 -2 -35.5 11.5t-17.5 34t11.5 35.5 t33.5 17q70 6 166 5q61 -2 101 -7q25 -4 40 -8q29 -10 43 -28q12 -14 17 -41q2 -16 2 -39q2 -37 -4 -92q-2 -27 -8 -93q-6 -47 -7 -61v-266q0 -66 7.5 -265.5t9.5 -265.5q2 -109 2 -270q0 -109 -4 -172q-2 -39 -4 -62q-2 -14 -4 -22t-4 -14q-6 -12 -19 -21q-8 -8 -22 -10 q-6 -2 -17 -4q-12 -2 -37 -4l-100 -6q-16 0 -52 -2.5t-50 -2.5q-51 -2 -64 -4q-20 -2 -35.5 10.5t-18.5 33zM297 -254h2h-2z" />
<glyph unicode="^" horiz-adv-x="757" d="M55 680q-8 18 0 37q37 90 152 309q94 180 139 303q14 39 53 33q40 6 54 -31l69 -160l74 -180q29 -68 62.5 -166t54.5 -182q6 -20 -5.5 -37.5t-31 -22.5t-36.5 6t-22 29q-10 41 -22 82t-29.5 88.5t-28 78t-32.5 87.5l-33 78q-8 20 -37 86l-35 82q-31 -70 -108 -221 q-109 -209 -148 -299q-8 -18 -26.5 -26.5t-37 0t-26.5 26.5z" />
<glyph unicode="_" horiz-adv-x="684" d="M-600 -203q8 49 48 80t87 37q94 12 137 -37q39 -45 21 -108q-18 -61 -68 -78q-63 -20 -106 53q-6 14 -3 27.5t16 20.5t26.5 4t21.5 -15q16 -33 25 -31q2 2 -2 6q14 6 22 31q8 29 -6 43q-18 23 -76 14q-29 -4 -50 -20.5t-23 -38.5q-14 -86 88 -123q98 -35 198 -8 q29 8 57.5 28.5t40 31t47.5 53.5t40 49q57 66 108 88q18 8 37 12q-8 14 -12 31q-23 80 18 137q35 53 105 61q72 8 133 -34q39 49 98 63q96 23 154 -57q59 -80 -2 -191q37 2 71 -10q55 -16 123 -74q14 -10 39 -35q29 -27 43 -38t38 -27t45.5 -24.5t45.5 -12.5q109 -16 207 31 q51 23 71.5 55.5t8.5 77.5q-4 10 -15.5 23.5t-19.5 15.5q-82 35 -113 12q-23 -14 -15.5 -54t26.5 -50v2q12 6 22 32q6 12 20.5 17.5t27 0.5t17.5 -19.5t1 -26.5q-20 -45 -49 -64q-33 -20 -70 -4q-51 23 -64 101q-12 82 43 122q61 45 183 -4q23 -10 44 -35.5t27 -48.5 q23 -76 -16 -137q-31 -49 -98 -80q-121 -55 -246 -37q-33 4 -62.5 15.5t-58.5 32t-45 34t-46 40t-38 34.5q-53 47 -96 59q-50 15 -111 -8q-18 -23 -48 -54.5t-34 -37.5q-12 -14 -31.5 -16t-35.5 10q-10 2 -21 8q-14 8 -57 27l-82 37q-39 18 -64 37q-37 2 -69 -13 q-37 -16 -84 -69q-6 -8 -30.5 -38t-39 -45.5t-39 -39t-52.5 -37.5t-56 -23q-123 -35 -244 9q-66 25 -104.5 74.5t-28.5 125.5z" />
<glyph unicode="a" horiz-adv-x="802" d="M42 326q5 68 26 145q39 137 113.5 269t146.5 196q111 98 221 98h6q66 0 111 -43q49 -43 63 -129q6 -4 10 -12q10 -16 13 -45q0 -18 -2 -43q-6 -49 -21 -119l-4 -14q0 -41 -3 -127t-3 -133q0 -106 4 -125q29 -106 122 -188q93 -84 213 -116q63 -17 122 -17q53 0 102 14 q18 6 36 -5q18 -10 24 -30q2 -7 2 -14q0 -12 -6 -22q-10 -18 -31 -24q-62 -17 -128 -17q-69 0 -143 19q-144 37 -258 138.5t-149 236.5q-8 29 -8 92q-76 -172 -160 -262q-86 -90 -175 -90q-40 0 -81 18q-68 31 -109 87q-41 58 -50 126q-6 44 -6 88q0 24 2 48zM144 206 q20 -102 102 -138q19 -9 38 -8q50 0 106 58q76 81 149 253q53 129 88 270v6q0 5 -1 71v37q0 30 1 31q2 37 8 56q-2 0 -2 2q-8 53 -33 76q-18 16 -49 16q-74 0 -158 -74q-59 -53 -126.5 -172t-102.5 -246q-27 -91 -28 -167q1 -37 8 -71z" />
<glyph unicode="b" horiz-adv-x="894" d="M78 1372q2 20 18 34q14 13 30 13h4q20 -2 34 -17.5t12 -33.5q-12 -195 -13 -414q0 -31 1 -63q102 123 227 151q38 9 75 8q122 0 230 -94q86 -74 135 -186q51 -115 55 -253v-15q0 -131 -59 -266q-43 -104 -145 -169t-221 -77q-28 -3 -55 -3q-119 0 -209 58l2 -20 q2 -20 -11.5 -36t-33.5 -18h-6q-16 -1 -30 11q-16 14 -18 34q-6 80 -10 158q-2 4 -4 10q-8 20 0 41q-21 368 -21 684q0 248 13 463zM166 723q4 -246 20 -524q35 -63 105 -93q52 -21 113 -21q23 0 47 3q96 10 176 59q78 51 110 125q50 120 50 232v13q-3 118 -45 212t-109 154 q-80 69 -167 69q-26 0 -52 -6q-135 -31 -240 -213q-4 -6 -8 -10z" />
<glyph unicode="c" horiz-adv-x="849" d="M43 514q20 180 109 340q115 204 279 204q12 0 24 -1q100 -10 141 -88q23 -39 37 -138q2 -18 -10.5 -34.5t-32 -19.5t-35.5 9.5t-20 32.5q-10 80 -25 105q-16 31 -64 34q-8 1 -16 1q-107 0 -192 -154q-78 -141 -97 -303q-6 -53 -6 -100q0 -144 58 -226q53 -75 145 -75 q11 0 22 1q115 10 231 123t167 295q6 20 23.5 30.5t36.5 4.5q20 -5 30 -23q6 -11 6 -23q0 -7 -2 -13q-57 -209 -194.5 -343.5t-288.5 -148.5q-18 -2 -35 -2q-141 0 -223 119q-74 106 -74 283q0 52 6 110z" />
<glyph unicode="d" horiz-adv-x="1116" d="M61 551q12 96 46 185t87.5 164t135.5 114q64 30 138 30q21 0 42 -2q90 -9 166 -75q-4 74 -4 123v30v37q0 29 2 41q0 63 6 109q10 66 31 108q33 61 90 74q14 2 27 2q59 0 94 -53q29 -43 36 -117q4 -39 4 -81q0 -58 -8 -122q-35 -254 -133 -545l6 -34q37 -195 86 -318 q53 -127 107 -143q8 -2 27 0q2 2 6 2t9 1t7 3q18 2 31 4q20 2 36 -12q15 -12 17 -34v-6q1 -18 -11 -32q-14 -16 -34 -18q-6 0 -18 -2l-27 -7q-17 -3 -33 -3q-21 0 -39 6q-98 33 -168 202q-37 90 -67 219q-72 -168 -152 -268q-116 -145 -245 -145h-15q-168 10 -244 198 q-46 114 -46 255q0 53 7 110zM160 518q-7 -53 -7 -101q0 -111 37 -200q53 -125 158 -131h9l171 104q84 100 160 291q17 39 31 80l-17 98q-18 86 -43 138q-18 41 -65 71.5t-96 36.5q-17 2 -33 2q-110 0 -191 -96q-92 -113 -114 -293zM770 1075q-1 -18 -1 -39q0 -97 19 -260 q49 182 68 314q8 55 8 104q0 35 -4 66q-4 49 -18 69q-6 7 -14 7q-3 0 -7 -1q-12 -2 -22 -20q-14 -25 -21 -72q-6 -37 -6 -92q-2 -12 -2 -39v-37z" />
<glyph unicode="e" horiz-adv-x="968" d="M76 297q-6 41 -6 83q0 88 24 184q36 144 109 270q35 61 73 110q61 76 119 92q42 12 78 12q67 0 113 -42q53 -53 53 -145q0 -17 -2 -36q-16 -143 -135 -401q-97 -207 -185 -324q66 -29 162 -32h18q229 0 398 202q12 16 32.5 18.5t36 -11t17.5 -35.5v-5q0 -18 -12 -30 q-197 -240 -472 -240h-22q-182 6 -281.5 95.5t-117.5 234.5zM172 326q13 -93 66 -150q82 104 176 301q111 238 125 365q2 14 2 27q0 45 -23 65q-17 15 -46 16q-21 0 -48 -8q-29 -8 -72 -59q-33 -41 -63 -95q-66 -115 -99 -239q-23 -83 -23 -157q0 -34 5 -66z" />
<glyph unicode="f" horiz-adv-x="452" d="M-224 -226q-1 5 -1 8q0 16 10 28q12 16 32.5 19t37.5 -9q82 -61 145 -66h5q50 0 89 35q90 80 107 270q4 45 4 101q1 37 1 65v27q-1 37 -6 106.5t-7.5 94t-10.5 107.5t-10 97q0 6 -11 101.5t-18 154.5q-61 8 -120 29q-18 8 -27.5 26.5t-2.5 37t25.5 26.5t36.5 2 q41 -12 84 -20q-1 20 -1 40q0 58 5 107q18 162 99 230q54 46 129 46q66 0 149 -36q20 -8 28 -27q3 -8 3 -17q0 -10 -4 -19q-8 -19 -27 -26t-37 1q-63 26 -108 26q-42 0 -68 -22q-51 -43 -65 -166q-4 -47 -4 -104v-39q51 2 147 14q20 2 36.5 -10.5t18.5 -33t-10 -36.5 t-33 -18q-100 -12 -153 -15q4 -53 14 -139l12 -104q2 -12 10.5 -94.5t10.5 -108.5l8 -96q4 -72 5 -113v-45v-53q-1 -58 -5 -105q-20 -229 -139 -332q-67 -61 -151 -61h-13q-96 4 -203 84q-14 12 -17 32z" />
<glyph unicode="g" horiz-adv-x="819" d="M-762 -178v7q0 16 10 29q11 17 30.5 19t33.5 -10q92 -80 297 -125q180 -42 379 -42q25 0 51 1q240 6 414 70q182 68 239 178q47 96 47 246v12q-61 -84 -141 -120q-63 -28 -125 -28q-17 0 -33 1q-78 10 -151 55q-82 53 -135.5 143t-64.5 206q-2 21 -2 43q0 96 40 200 q27 72 65.5 129t92 104t123.5 66q38 11 78 11q34 0 69 -7q68 -16 121 -54q6 35 39 37q18 2 32.5 -11t16.5 -34q2 -41 6 -117l2 -4q8 -18 0 -36l2 -15q4 -98 14 -166l15 -102q10 -76 15 -121t10 -121q4 -42 4 -77q0 -29 -2 -53q-5 -54 -18 -117.5t-40 -114.5 q-74 -147 -291 -228q-186 -66 -438 -73q-25 -1 -51 -1q-211 0 -408 45q-221 50 -329 142q-14 12 -17 33zM184 474q9 -93 49.5 -162.5t104.5 -112.5q59 -39 124 -42h8q62 0 125 44q67 47 114 145q2 11 12 19l-16 122q-12 80 -17 111q-6 66 -12 174l-2 35q-41 84 -142 104 q-28 7 -54 7q-72 0 -132 -50q-82 -69 -133 -198q-31 -84 -31 -160q0 -18 2 -36z" />
<glyph unicode="h" horiz-adv-x="974" d="M51 545v62q0 126 6 270q10 227 11 516q0 20 14 34.5t34.5 14.5t35 -14.5t14.5 -34.5q0 -293 -10 -521q-4 -104 -6 -157q86 188 247 264q75 34 138 34q67 0 120 -38q88 -63 132 -173t67 -257q10 -59 20.5 -158.5t21.5 -169.5t28 -119q45 -141 175 -242q129 -100 289 -139 q97 -24 192 -24q61 0 120 10q23 2 49 10l45 15q18 6 51 18l49 18q18 6 37 -3t26 -27q3 -8 3 -17q0 -11 -5 -21q-9 -18 -28 -26l-47 -16l-55 -19q-20 -8 -52 -17t-57 -13q-59 -9 -121 -9q-69 0 -141 11q-137 20 -261 76.5t-222.5 156t-141.5 226.5q-18 57 -30.5 133.5 t-23.5 179t-17 151.5q-43 281 -160 363q-28 21 -66 21q-41 0 -94 -25q-137 -63 -202 -225q-66 -159 -66 -344v-11l20 -141q0 -2 17 -78q6 -29 6 -41t-4 -20q-10 -33 -45 -35q-20 0 -37 14q-6 4 -10 12q-29 37 -37 115q-2 23 -4 60.5t-2 40.5q-2 33 -2 67q-4 29 -9 51 q-10 90 -12 191z" />
<glyph unicode="i" horiz-adv-x="221" d="M64 318q-4 64 -3 137q1 111 9 243q14 220 14 289q0 20 14.5 34.5t35 14.5t34.5 -14.5t14 -34.5q0 -88 -13 -300q-8 -138 -8 -248q0 -59 2 -111q7 -148 52 -275q2 -8 2 -16q0 -11 -5 -21q-8 -18 -28 -25q-9 -3 -17 -3q-11 0 -21 5q-18 9 -25 27q-47 137 -57 298z M96 1347.5q0 20.5 14.5 35t35 14.5t35 -14.5t14.5 -35t-14.5 -35t-35 -14.5t-35 14.5t-14.5 35z" />
<glyph unicode="j" horiz-adv-x="227" d="M-1499 -102q14 14 34.5 13t34.5 -15q86 -96 299 -154.5t465 -58.5q256 0 449 59q201 66 264 178q64 114 64 335v26q0 84 -12.5 229t-14.5 166q-3 26 -3 115v48q1 130 1 165q0 20 14.5 34.5t35 14.5t34.5 -14.5t14 -34.5v-160q-1 -42 -1 -75q0 -64 3 -89 q2 -18 14.5 -166.5t12.5 -230.5v-25q0 -250 -76 -387q-82 -145 -321 -221q-207 -66 -478 -66q-264 0 -497.5 64.5t-339.5 181.5q-11 13 -11 31q0 23 15 37zM74 1337.5q0 20.5 14 34.5t34.5 14t35 -14t14.5 -34.5t-14.5 -35t-35 -14.5t-34.5 14.5t-14 35z" />
<glyph unicode="k" horiz-adv-x="694" d="M27 1423q0 23 12 38.5t33.5 15.5t37 -13.5t15.5 -36.5q6 -158 22.5 -449.5t24.5 -406.5l21 25q68 59 88 88q102 119 170 215t96 195q6 20 24.5 30.5t37 4t28.5 -26t4 -37.5q-27 -82 -79 -169t-96 -144.5t-110 -135.5q-25 -27 -69 -69q78 -20 157 -117q61 -72 154 -219 q96 -152 141 -213q92 -115 219 -192q128 -76 268 -106q115 -25 235 -25q25 -1 51 1q146 6 294 45q18 6 37 -4q19 -11 24 -31q2 -7 2 -13q1 -13 -7 -25q-10 -18 -31 -23q-155 -45 -313 -51q-25 -1 -49 -1q-133 -1 -263 27q-154 32 -295 118.5t-245 218.5q-53 61 -152 219 q-90 145 -141 206q-41 45 -67.5 64.5t-65.5 24.5h-2l-25 -7q-20 -4 -35 -2q10 -252 10 -456q0 -20 -15 -34.5t-34.5 -14.5t-34 14t-14.5 35q0 215 -10 455.5t-28.5 529.5t-24.5 452z" />
<glyph unicode="l" horiz-adv-x="561" d="M-70 -28q2 20 18 33t36 11q6 -1 13 -1q87 0 173 102q25 31 49 69q-53 133 -76 318q-14 120 -14 234q0 178 35 341q37 170 57 224q65 160 174 160q16 0 33 -3q66 -14 102 -86q27 -49 35 -129q7 -48 8 -121q0 -49 -4 -108q-6 -111 -47 -295q-39 -180 -102 -348 q-41 -111 -90 -195q43 -86 100 -135q16 -12 18.5 -32.5t-11 -36t-34 -17.5t-34.5 12q-55 45 -99 117q-12 -16 -24 -31q-117 -138 -252 -138q-9 0 -19 1q-19 2 -33 18q-12 14 -12 30v6zM242 514q12 -117 41 -213q25 51 45 107q61 160 100 333q39 176 43 279q3 61 3 109 q0 64 -5 104q-8 61 -27 96q-14 29 -34 33q-5 1 -10 1q-18 1 -38 -17q-24 -22 -47 -80q-20 -49 -55 -207q-30 -147 -30 -311q0 -113 14 -234z" />
<glyph unicode="m" horiz-adv-x="1159" d="M37 -18q0 94 10 485q4 111 4 188q-4 10 -4 23q0 16 4 35q0 125 -4 233q0 23 13.5 37t34 16t35.5 -12t15 -35q2 -31 2 -65l31 33q63 53 127 59h12q74 0 125 -66q31 -41 54 -106q76 133 192 190q50 25 102 27q3 0 7 1q48 -1 97 -29q52 -30 93 -89q76 -121 103 -346 q8 -63 16 -194t14 -191q23 -207 84 -309q76 -125 240 -148q55 -7 106 -7q135 0 234 52q18 10 38 4q18 -6 28 -25q6 -11 6 -23q0 -8 -2 -16q-6 -20 -25 -30q-124 -64 -285 -64q-54 0 -112 7q-209 29 -310 195q-74 121 -98 354q-6 59 -15.5 188t-15.5 195q-25 203 -88 297 q-48 76 -112 76q-30 0 -64 -17q-49 -25 -94 -76t-70 -108q-20 -47 -20 -129q4 -20 8 -45q20 -174 20 -377q0 -20 -14 -35.5t-34.5 -15.5t-35 15.5t-14.5 35.5q0 111 -6 219l-4 10q-16 111 -16 185q-31 195 -84 266q-23 29 -52 27q-33 -2 -71 -37q-70 -61 -92 -140 q0 -80 -5 -235q-10 -391 -10 -483q0 -20 -14.5 -36t-34.5 -16t-34.5 15.5t-14.5 36.5z" />
<glyph unicode="n" horiz-adv-x="819" d="M49 987q0 20 14.5 35.5t34 15.5t32.5 -15t13 -36v-76q92 82 199 111q35 8 68 8q50 0 97 -18q79 -30 134 -113q14 -23 25.5 -45.5t19.5 -52.5l16 -45q6 -18 12.5 -53t8.5 -47.5t8 -50.5t8 -44l23 -141q14 -100 21.5 -148.5t24.5 -115t38 -117.5q47 -111 128 -184.5 t222 -112.5q174 -48 284 -48q19 0 36 1q20 2 34.5 -11.5t16.5 -33.5v-6q1 -17 -11 -31q-14 -16 -32 -19q-18 -1 -38 -1q-122 0 -312 53q-162 43 -261.5 132t-152.5 220q-25 57 -41 131q-20 74 -29 123l-24 154q-14 102 -21 137q0 10 -6 41.5t-7 41t-7.5 38t-9.5 42l-8 36 t-11 36t-15.5 31.5t-19.5 33q-56 89 -147 89q-25 0 -52 -7q-57 -16 -112 -55.5t-94 -92.5q-5 -8 -13 -12q4 -416 29 -737q2 -18 -11.5 -35t-32.5 -19t-34.5 12.5t-15.5 32.5q-29 387 -29 969z" />
<glyph unicode="o" horiz-adv-x="962" d="M74 500q8 98 45 192q78 201 221 299q90 60 183 60h9q8 0 15 -2q66 -6 125 -43q22 -14 22 -43q80 -63 142.5 -151.5t87.5 -176.5q21 -70 21 -148q1 -31 -3 -62q-12 -112 -59 -210q-51 -106 -136 -174t-198 -72h-32q-119 0 -183 27q-104 47 -169 129t-83 179 q-12 61 -12 122q0 37 4 74zM165 429q0 -107 51 -201q52 -96 159 -142q40 -19 129 -18h41q80 2 143 51q66 51 107 137q39 84 48 179q3 27 3 52q0 64 -17 119q-31 104 -118 203.5t-185 142.5h-5q-61 0 -126 -43q-117 -80 -184 -252q-46 -117 -46 -228z" />
<glyph unicode="p" horiz-adv-x="856" d="M49 258v21q-3 100 -3 198q0 131 5 258q-2 7 -2 14t2 13l2 8q6 109 15 215q2 20 17 33q13 12 30 12h5q21 -2 34.5 -17.5t11.5 -35.5l-4 -41q99 80 240 80h14q121 -2 227.5 -64.5t155.5 -173.5q45 -104 45 -260q0 -180 -102.5 -314t-247.5 -186q-71 -24 -137 -24 q-72 0 -136 29q-33 16 -61 40q12 -203 39 -417q2 -20 -10.5 -37t-32.5 -19h-6q-17 0 -32 10q-16 13 -18 33q-39 326 -49 623zM150 268q27 -115 112 -155q44 -20 95 -20q49 0 104 18q119 41 201.5 150.5t82.5 256.5q0 135 -36 219q-35 82 -117 130t-178 51h-8q-87 0 -154 -40 q-71 -42 -100 -126q-7 -129 -7 -261q0 -110 5 -223z" />
<glyph unicode="q" horiz-adv-x="864" d="M64 452q8 146 83 291q88 174 236 244q71 34 142 34q98 0 194 -65q-2 18 -6 37q-2 20 9 37t32 20q4 1 8 1q15 0 28 -9q17 -12 21 -32q28 -173 28 -456q0 -92 -3 -196q4 -16 -2 -32v-29q-2 -45 -11.5 -154.5t-11.5 -162.5q-2 -44 -2 -83q0 -135 27 -202q55 -135 311 -174 q78 -9 153 -9q37 0 74 2q109 7 187 33q82 27 153.5 93.5t106.5 148.5q8 18 26.5 25.5t38 -1t26.5 -26.5q3 -8 3 -17q0 -11 -4 -22q-43 -100 -130 -180t-192 -115q-88 -29 -210 -37q-39 -3 -78 -3q-84 0 -168 12q-311 45 -388 233q-35 82 -35 233q0 44 3 93q2 55 10 155 q-76 -96 -172 -137q-67 -30 -132 -30q-90 0 -175 59q-90 63 -138 169q-43 93 -43 214q0 19 1 38zM162 446v-25q0 -106 34 -180q37 -83 103 -128q59 -41 122 -41q44 0 91 20q133 57 225 256q3 120 3 214t-3 161v6q-10 102 -67 141q-74 52 -148 52l-98 -23q-115 -55 -191 -201 q-66 -129 -71 -252z" />
<glyph unicode="r" horiz-adv-x="507" d="M37 987q0 20 14.5 34.5t34.5 14.5t34.5 -14t14.5 -35v-41q37 33 82 58q72 39 154 51q31 4 60 5q49 0 95 -13q20 -5 30 -23q7 -11 7 -24q0 -8 -2 -14q-6 -20 -23.5 -30t-35.5 -4q-38 11 -77 11q-79 0 -161 -45q-113 -61 -125 -160q2 -84 8.5 -231.5t9.5 -269.5t3 -230 q0 -20 -14.5 -35t-35 -15t-35 14.5t-14.5 35.5q0 104 -3 218.5t-9 261t-8 220.5q-2 8 -2 16q0 10 2 19q-4 125 -4 225z" />
<glyph unicode="s" horiz-adv-x="821" d="M51 356v5q-1 17 11 31q14 16 34.5 18t35.5 -11.5t18 -33.5q4 -68 13 -104t34 -71q27 -39 68.5 -72.5t82.5 -45.5q62 -19 132 -19q45 0 93 8q131 20 160 97q16 41 16 85q0 90 -67 191q-92 137 -236 215q-14 8 -49 19q-45 16 -63 24q-92 41 -111 115q-5 19 -5 37 q0 60 50 114q57 59 148 86q57 12 114 12h4q60 0 120.5 -35.5t97.5 -98.5q10 -18 4 -38t-23.5 -30t-37 -4t-29.5 22q-34 59 -98 79q-31 10 -62 10q-32 0 -64 -11q-66 -18 -102 -57q-23 -26 -23 -50q-1 -5 1 -11q8 -28 57 -50q12 -6 55 -20q41 -14 62 -27q168 -90 272 -246 q83 -127 83 -245q0 -63 -24 -123q-49 -125 -233 -158q-57 -10 -110 -10q-84 0 -161 24q-57 18 -112 61.5t-92 94.5q-25 35 -39.5 78t-17.5 69.5t-7 75.5z" />
<glyph unicode="t" horiz-adv-x="708" d="M-758 1080q-4 9 -4 19q0 11 4 21q8 20 27 27q231 105 465 105q181 0 364 -62q-6 119 -18 217q-2 20 9 37.5t31 20.5q4 1 7 1q15 0 27 -11q16 -13 20 -32q16 -121 23 -268l79 -33l76 -30q23 -8 65 -21.5t74.5 -18.5t79.5 -9.5t105 -4.5q18 0 32.5 -15t14.5 -36.5 t-14.5 -37t-32.5 -15.5q-39 0 -72 1t-65.5 6t-54 8t-53.5 11.5t-44 11.5t-48 16t-44 18l-51 18q-39 16 -47 20v-37q0 -128 -11 -348q0 -23 -5 -98.5t-5 -109.5v-91q0 -61 5 -107t16 -89q23 -90 120 -109q26 -6 49 -6q71 0 119 53q90 94 105 291q2 20 16.5 34.5t35 12.5 t32.5 -18t10 -39q-14 -233 -131 -354q-47 -51 -115 -71q-42 -12 -84 -12q-26 0 -51 5q-72 14 -126 62t-73 126q-12 47 -17 99.5t-5 117.5v99q0 37 4 114.5t4 94.5q10 239 10 375v42l-8 2q-181 65 -359 65q-216 0 -429 -95q-18 -8 -36 -0.5t-26 27.5z" />
<glyph unicode="u" horiz-adv-x="923" d="M59 578q0 35 9 213q2 60 2 105.5t-2 76.5q-2 20 11 35.5t33 17.5h6q16 0 30 -12q16 -14 18 -33q2 -35 2 -84t-2 -111q-8 -176 -8 -211v-30q0 -225 57 -326q61 -113 158 -139q32 -9 61 -9q88 0 148 81q53 72 112 260q2 4 2 6q-2 29 -2 59q-2 42 -2 92q0 75 4 168 q2 27 6 111l7 127q0 20 15 33.5t35.5 13.5t34 -15.5t13.5 -35.5l-6 -127q-4 -86 -6 -111q-4 -88 -4 -161q0 -49 2 -91q10 -283 118 -434q8 -12 8 -27q0 -4 -1 -10q-3 -20 -19 -32q-13 -9 -28 -9q-5 0 -9 1q-20 3 -33 20q-66 94 -100 225q-31 -74 -67 -123 q-90 -120 -221 -120q-44 0 -93 14q-137 37 -219 184q-70 126 -70 380v28z" />
<glyph unicode="v" horiz-adv-x="884" d="M31 1036q-2 6 -2 13q0 12 7 23q11 18 30.5 23t37 -6.5t21.5 -31.5q12 -51 30.5 -102.5t52.5 -131.5t44 -106q145 -365 178 -459q31 150 62 219q121 287 282 475q225 260 488 269q20 0 35.5 -13.5t15.5 -34t-13.5 -36t-33.5 -15.5q-221 -8 -418 -235q-152 -176 -266 -447 q-29 -70 -64 -237q-10 -49 -20 -111l-6 -33q-2 -6 -3 -10v-4q-2 -2 -2 -4t-2 -6l-4 -8q-14 -16 -35 -21q-6 -1 -11 -1q-35 0 -52 34q-8 16 -10 41v6v12q0 6 -2 8v13q-20 68 -49 149.5t-46 124.5l-61 156q-45 109 -53 131l-45 102q-35 84 -54.5 140.5t-31.5 113.5z" />
<glyph unicode="w" horiz-adv-x="1298" d="M35 963q-2 7 -2 14q0 11 7 23q11 18 30.5 23t37 -6.5t21.5 -29.5q33 -125 176 -614q8 -27 37 -137q29 102 80 235q39 109 72 174q18 39 32 62q10 14 19 24q16 16 37 21q27 4 49 -15q12 -8 24 -22q16 -23 41 -64q37 -63 97 -186l69 -152q49 -104 68 -141q43 285 74 391 q74 254 250 431t432 259q7 2 14 2q10 0 22 -5q18 -8 25 -28q2 -8 2 -16q0 -10 -5 -22q-9 -18 -30 -25q-231 -74 -391 -233.5t-225 -390.5q-10 -37 -19.5 -74t-16.5 -81t-12.5 -71.5t-13.5 -83t-10 -80.5q-2 -6 -2 -22v-33q-6 -59 -45 -86q-15 -10 -33 -10h-6q-18 2 -35 16 q-12 10 -22 33q-2 6 -11 27q-4 10 -4 12q-14 23 -39 74l-65 135l-59 131q-57 119 -93 180l-18 27q-6 -12 -12 -27q-27 -57 -68 -166q-84 -223 -90 -276q0 -2 -1 -12.5t-3 -23.5t-2 -26q-4 -27 -8 -43q-4 -14 -9 -22q-10 -23 -30 -31q-33 -14 -58 12q-6 6 -12 19 q-6 10 -12 30q-10 31 -27 89l-24 94q-18 72 -27 98q-145 492 -176 619z" />
<glyph unicode="x" horiz-adv-x="841" d="M-790 -224q-4 9 -3 18q1 10 5 20q8 20 26.5 27t36.5 -1q99 -42 198 -41q185 0 371 144q80 59 167 154.5t136 160.5l136 176l73 101q-174 270 -311 419q-12 14 -12 35t15 34t35.5 13t35.5 -16q133 -145 299 -402q193 254 346 402q16 14 35.5 14t34 -15t14.5 -34.5 t-14 -34.5q-156 -150 -359 -420l94 -153l111 -172l90 -139q10 -16 7 -36t-20.5 -31t-37 -8t-31.5 21q-37 53 -276 434l-52 -69l-135 -180q-49 -66 -142 -166.5t-177 -165.5q-215 -165 -431 -165l-237 50q-20 8 -28 26z" />
<glyph unicode="y" horiz-adv-x="741" d="M76 -248q72 145 266 166q30 2 68 2t84 -2q123 -6 133 -6h14q4 66 4 147q-59 -70 -139 -100q-51 -14 -100 -17h-9q-45 0 -88 30q-47 32 -73 91q-55 131 -55 392q0 37 1 77q8 252 51 463q4 23 21 35q11 8 24 8q5 0 10 -1q19 -5 30.5 -24.5t5.5 -39.5q-39 -201 -48 -445 q-2 -44 -2 -85q0 -226 48 -330q27 -67 91 -67q27 0 62 13q55 23 94 65t49 87q4 27 25 37v10q-2 51 -14 404q-4 137 -4 222q0 56 2 89q0 23 15 39t33.5 13t33 -19.5t12.5 -36.5q-2 -30 -2 -85q0 -81 4 -216q12 -356 14 -408q3 -94 3 -173q0 -106 -5 -185q41 -6 118 -25.5 t112 -23.5q260 -44 423 -44q55 0 99 5q289 33 405 252q12 20 31 26t36 -6t21 -34q2 -7 2 -14q0 -13 -6 -26q-145 -266 -481 -307q-55 -6 -115 -6q-61 0 -109 3t-117 12.5t-101 13.5l-103 18q-47 8 -119.5 26.5t-105.5 24.5q-16 -137 -55 -198q-76 -111 -190 -145 q-59 -17 -115 -17q-55 0 -109 16q-109 29 -162 105q-40 53 -40 109q0 42 22 85zM166 -303q-7 -18 -7 -35q0 -24 15 -47q35 -57 115 -82q41 -13 81 -13q44 0 89 15q88 31 143 125q25 39 39 158h-6q-12 0 -137 8q-28 1 -53 1q-49 0 -85 -3q-147 -18 -194 -127z" />
<glyph unicode="z" horiz-adv-x="940" d="M86 8q-9 14 -9 27q0 15 11 31q6 8 21 20q6 4 11 8t7 4l2 2q27 29 53 64l60 74l49 65q57 70 145 195q-72 4 -90 4q-20 0 -33.5 15t-13.5 35.5t15.5 34t35.5 13.5q27 0 78 -3t76 -3l4 6q135 186 235 293q2 2 17 14q-23 -2 -48.5 -4t-43 -3t-23.5 -1l-203 -10 q-158 -6 -243 -12q-20 -2 -36 11t-18 33.5t11.5 36t33.5 17.5q86 6 247 13t204 9q4 0 24.5 2t51.5 4.5t55 2.5q51 4 78 4q18 2 29 2q6 0 12 -2q6 0 10 -2q8 -2 14 -9q20 -14 21 -36q0 -16 -8 -31q-2 -4 -6 -10l-17 -17q-14 -14 -39 -37l-39 -32l-14 -13q-84 -88 -186 -227 q25 2 47 8q20 2 37.5 -9t20.5 -30.5t-8 -37t-30 -21.5q-61 -10 -141 -12q-127 -180 -184 -252l-84 -109q30 4 59 3q36 0 70 -5q72 -14 182 -61q121 -53 164 -66q281 -81 498 -81q144 0 260 36q18 6 36 -3q19 -8 25 -28q2 -8 2 -16q0 -10 -5 -22q-9 -18 -30 -25 q-130 -40 -289 -40q-232 0 -526 85q-49 14 -174 70q-100 43 -160 53q-32 6 -64 6q-59 0 -116 -21q-2 0 -24 -14q-29 -20 -57 -20h-7q-29 2 -43 24z" />
<glyph unicode="&#xad;" d="M56 569.5q1 20.5 15.5 33.5t34.5 13q195 -10 310 -10q20 0 34.5 -14t14.5 -34.5t-14.5 -35t-34.5 -14.5q-119 0 -314 10q-20 2 -33.5 16.5t-12.5 35z" />
<glyph unicode="&#x2000;" horiz-adv-x="814" />
<glyph unicode="&#x2001;" horiz-adv-x="1628" />
<glyph unicode="&#x2002;" horiz-adv-x="814" />
<glyph unicode="&#x2003;" horiz-adv-x="1628" />
<glyph unicode="&#x2004;" horiz-adv-x="542" />
<glyph unicode="&#x2005;" horiz-adv-x="407" />
<glyph unicode="&#x2006;" horiz-adv-x="271" />
<glyph unicode="&#x2007;" horiz-adv-x="271" />
<glyph unicode="&#x2008;" horiz-adv-x="203" />
<glyph unicode="&#x2009;" horiz-adv-x="325" />
<glyph unicode="&#x200a;" horiz-adv-x="90" />
<glyph unicode="&#x2010;" d="M56 569.5q1 20.5 15.5 33.5t34.5 13q195 -10 310 -10q20 0 34.5 -14t14.5 -34.5t-14.5 -35t-34.5 -14.5q-119 0 -314 10q-20 2 -33.5 16.5t-12.5 35z" />
<glyph unicode="&#x2011;" d="M56 569.5q1 20.5 15.5 33.5t34.5 13q195 -10 310 -10q20 0 34.5 -14t14.5 -34.5t-14.5 -35t-34.5 -14.5q-119 0 -314 10q-20 2 -33.5 16.5t-12.5 35z" />
<glyph unicode="&#x2012;" d="M56 569.5q1 20.5 15.5 33.5t34.5 13q195 -10 310 -10q20 0 34.5 -14t14.5 -34.5t-14.5 -35t-34.5 -14.5q-119 0 -314 10q-20 2 -33.5 16.5t-12.5 35z" />
<glyph unicode="&#x2013;" horiz-adv-x="1101" d="M55.5 569.5q2.5 20.5 38.5 33.5t86 13q488 -10 776 -10q50 0 86.5 -14t36.5 -34.5t-36.5 -35t-86.5 -14.5q-298 0 -786 10q-50 2 -83.5 16.5t-31 35z" />
<glyph unicode="&#x2014;" horiz-adv-x="2125" d="M55 569.5q5 20.5 78 33.5t173 13q976 -10 1552 -10q100 0 172.5 -14t72.5 -34.5t-72.5 -35t-172.5 -14.5q-596 0 -1572 10q-100 2 -168 16.5t-63 35z" />
<glyph unicode="&#x2018;" horiz-adv-x="331" d="M51.5 1088.5q-10.5 74.5 14 142t62.5 125t89 106.5q16 14 36.5 14.5t34 -15t13.5 -36t-14 -32.5q-63 -61 -99 -125t-38 -133q-4 -70 40 -129q12 -16 9.5 -36t-19 -32t-36 -9t-31.5 19q-51 66 -61.5 140.5z" />
<glyph unicode="&#x2019;" horiz-adv-x="235" d="M32 974.5q-3 20.5 7 37.5q139 199 41 418q-8 18 -1 37.5t25.5 27.5t38 0.5t27.5 -25.5q121 -270 -49 -516q-12 -16 -32.5 -19t-37 8t-19.5 31.5z" />
<glyph unicode="&#x201c;" horiz-adv-x="530" d="M55 940q-100 207 78 506q10 18 30.5 23.5t38 -5t22.5 -31t-5 -36.5q-152 -254 -74 -416q8 -18 1 -36.5t-25.5 -28t-36.5 -2t-29 25.5zM301 1182q35 154 148 258q14 12 34.5 12t33.5 -15.5t13 -36t-16 -34.5q-90 -82 -117 -207q-31 -129 45 -205q14 -14 14.5 -34.5 t-14 -35t-35 -14.5t-34.5 15q-113 113 -72 297z" />
<glyph unicode="&#x201d;" horiz-adv-x="526" d="M18 954.5q2 20.5 17 34.5q92 82 108.5 195.5t-43.5 228.5q-8 16 -1 35.5t24.5 29t37 2t29.5 -25.5q45 -92 53.5 -187.5t-27.5 -187.5t-116 -164q-14 -14 -34.5 -12t-35 16.5t-12.5 35zM313 950.5q2 20.5 17 34.5q74 66 86 193t-35 221q-8 18 -1 37.5t25.5 28t38 1 t27.5 -25.5q35 -80 43 -174.5t-20.5 -193.5t-98.5 -161q-14 -14 -34.5 -12t-35 16.5t-12.5 35z" />
<glyph unicode="&#x202f;" horiz-adv-x="325" />
<glyph unicode="&#x205f;" horiz-adv-x="407" />
<glyph unicode="&#xe000;" horiz-adv-x="1034" d="M0 0v1034h1034v-1034h-1034z" />
</font>
</defs>
</svg>
